<svg xmlns="http://www.w3.org/2000/svg" width="100.482" height="36.538" viewBox="0 0 100.482 36.538">
  <g id="made_by_ting_light" transform="translate(0.003 0)">
    <path id="Path_31164" data-name="Path 31164" d="M103.352,44.363a.112.112,0,0,0,.077.045.125.125,0,0,1,.077.044.243.243,0,0,1,.087.109l.022.022c0,.015.007.023.021.023.074.028.144.058.208.087a1.97,1.97,0,0,1,.209.111l.044.021a5.491,5.491,0,0,1,.583-.011,1.313,1.313,0,0,0,.6-.143.879.879,0,0,0,.439-.351,3.388,3.388,0,0,0,.286-.571,1.368,1.368,0,0,0,.12-.527q.012-.285.012-.593v-.482a4.259,4.259,0,0,0-.022-.44c0-.029.008-.12.022-.275a1,1,0,0,1,.066-.318c.1-.264.248-.407.439-.429a3.968,3.968,0,0,1,.4-.032.691.691,0,0,1,.286.077.339.339,0,0,1,.132.142c.028,0,.045.029.045.088a1.191,1.191,0,0,0,.1.275.777.777,0,0,1,.077.274,3.5,3.5,0,0,1,0,.538c-.015.168-.021.333-.021.494v.132a1.146,1.146,0,0,0-.044.329,1.236,1.236,0,0,1-.045.331.61.61,0,0,1-.011.086.675.675,0,0,0-.011.088,2.585,2.585,0,0,1-.164.89,2.911,2.911,0,0,1-.341.692,2.963,2.963,0,0,1-.483.527,3.034,3.034,0,0,1-.594.351,1.55,1.55,0,0,1-.3.133c-.1.028-.2.058-.318.086a3.575,3.575,0,0,1-.879.11,4.728,4.728,0,0,1-.812-.066.438.438,0,0,1-.2-.044,2.717,2.717,0,0,0-.3-.108c-.1-.03-.208-.067-.34-.111H102.8a.563.563,0,0,0-.066-.11c-.031,0-.038.014-.023.043s.008.037-.022.022a.581.581,0,0,1-.153-.109.546.546,0,0,0-.177-.111.061.061,0,0,0-.044-.021.6.6,0,0,1-.121-.11c-.036-.044-.084-.1-.142-.154a2.283,2.283,0,0,1-.483-.857,4.5,4.5,0,0,1-.22-1.054q-.065-.833-.055-1.8t.012-2.174c0-.293,0-.693.011-1.2s0-.985-.034-1.438a.287.287,0,0,0-.208-.242,2.641,2.641,0,0,1-.275-.088h-.088a1.74,1.74,0,0,0-.3.021l-.23.044H100.1a.872.872,0,0,1-.572-.263.829.829,0,0,1-.218-.506.976.976,0,0,1,.175-.517.68.68,0,0,1,.571-.3h.923q.374-.021.33-.5v-1.47c0-.249,0-.443-.012-.582a1.523,1.523,0,0,1,.034-.407.656.656,0,0,1,.548-.527.516.516,0,0,1,.231-.044.68.68,0,0,1,.208.022.248.248,0,0,1,.132.088.251.251,0,0,0,.133.087l.043.045a.574.574,0,0,0,.132.22.552.552,0,0,1,.132.262.174.174,0,0,0,.023.088.194.194,0,0,1,.022.089c.029.159.021.258-.022.3s-.037.108.022.208a.17.17,0,0,0,.01.054.209.209,0,0,1,.012.056,1.67,1.67,0,0,1,.011.318c-.008.1-.011.2-.011.318v.3c0,.124,0,.251.011.384s.012.246.012.342v.163q.064.2.4.2h2.459a.681.681,0,0,1,.55.175.847.847,0,0,1,.22.571.7.7,0,0,1-.22.625,1,1,0,0,1-.55.209h-2.57c-.19,0-.285.147-.285.439q-.046.7-.034,1.3c.007.4,0,.813-.032,1.253a.374.374,0,0,0,.012.109.368.368,0,0,0,.032.088v2.548a4.326,4.326,0,0,0,.054.968,3.355,3.355,0,0,0,.253.768v.043a.061.061,0,0,0,.022.044.182.182,0,0,0,.021.11c0,.044.016.066.046.066M99.617,35.8c0-.045-.008-.067-.022-.067,0,.044.008.067.022.067m.2-.352v-.066a.038.038,0,0,1-.022.033c-.015.008-.008.019.022.033m0,.747c0,.059.008.065.022.021s.006-.051-.022-.021m.132-.154c.058.058.081.062.066.01s-.037-.054-.066-.01m.109-.549c.029.015.044,0,.044-.034s-.006-.047-.022-.033c-.029.03-.036.051-.022.067m.044-.133a.055.055,0,0,0,.056-.032.412.412,0,0,1,.033-.077.065.065,0,0,1-.023-.045c0-.014-.014-.022-.044-.022.029.044.029.077,0,.1a.057.057,0,0,0-.022.077m.22.791v-.065a.037.037,0,0,1-.022.033c-.015.007-.007.018.022.033m.087.044c0-.03.015-.037.044-.022a.193.193,0,0,1,.033-.242.165.165,0,0,0,.033-.218c.058-.031.074-.067.044-.111a.341.341,0,0,0-.133.275c-.014.138-.022.246-.022.319m.2-.681c-.044.013-.056.029-.034.044s.034,0,.034-.044m0,.637c-.03.03-.03.044,0,.044s.029-.014,0-.044m0-.858.088.045a.047.047,0,0,1,.011-.067.074.074,0,0,0,.033-.065.325.325,0,0,1-.088-.066.229.229,0,0,1-.011.088l-.033.065m.109.44-.021-.021c-.03.014-.037.029-.022.042s.029.008.043-.022m.088-.44c-.029,0-.043-.011-.043-.033s-.008-.017-.022.01c.014,0,.025.012.033.034s.017.019.033-.012m1.033-.241c-.014.058-.007.072.022.044s.021-.044-.022-.044m.132,1.275c-.029.014-.045.014-.045,0s-.013-.023-.044-.023c-.014.044-.008.063.022.055a.157.157,0,0,0,.067-.032m-.022-4.525c0-.044-.008-.066-.023-.066,0,.043.007.066.023.066m.088.088c.043,0,.065-.03.065-.088h-.065Zm0,6.83c.072,0,.109-.007.109-.021-.029-.015-.037-.033-.022-.055a.137.137,0,0,0,.022-.076c-.015,0-.022,0-.022-.012s-.007-.011-.021-.011c.029.042.029.073,0,.087a.144.144,0,0,0-.065.087m.109,6.524c0-.029-.008-.047-.022-.055a.164.164,0,0,1-.044-.033c0,.058.022.088.066.088m.065-10.061c0-.029,0-.047.012-.055a.087.087,0,0,0,.011-.054h-.088c0,.074.022.109.065.109m-.065,3.229h.044c0-.045-.014-.066-.044-.066Zm.132-6.5a.078.078,0,1,0-.065-.022.078.078,0,0,0,.065.022m-.043,6.217h.043c-.029-.029-.043-.029-.043,0m.043-.176c.014-.044.029-.048.044-.012s.037.041.067.012a.1.1,0,0,0-.033-.087q-.033-.021-.078-.045a.116.116,0,0,1-.021.055c-.015.021-.007.049.021.077m.022-2.239c0,.073.015.12.044.141a.809.809,0,0,1,.088.077.172.172,0,0,1,.056-.066.072.072,0,0,0,.033-.065c-.044.015-.081,0-.11-.055s-.066-.062-.11-.032m.131-3.778h-.088c0,.058.014.076.044.054a.061.061,0,0,1,.088.011c.014.029.007.04-.023.033s-.036,0-.022.033a.035.035,0,0,0,.066,0A.14.14,0,0,1,102.56,32c-.044,0-.051-.029-.021-.089h-.066c0-.014.014-.036.044-.065a.051.051,0,0,1-.055-.033c-.008-.022-.026-.025-.055-.011s-.011.033.011.055a.061.061,0,0,1,.011.077m-.066,1.778.077.078.077.077a.237.237,0,0,1-.044-.187.224.224,0,0,0-.023-.164.17.17,0,0,1-.054.089q-.033.023-.033.108m.023,5.118a.5.5,0,0,1-.012.1.065.065,0,0,0,.033.079.192.192,0,0,0,.077-.1.1.1,0,0,0-.011-.12.062.062,0,0,1-.088.042m.065-2.592a.113.113,0,0,0,.023-.12.151.151,0,0,0-.066-.1.342.342,0,0,1,.011.142.061.061,0,0,0,.033.077m.023,1.188a.152.152,0,0,1,.011-.067c.007-.014,0-.023-.034-.023,0,.059.007.09.023.09m.021-2.2c.045-.015.066-.012.066.011s.015.032.043.032a.071.071,0,0,0-.043-.065.044.044,0,0,0-.066.022m0,.5c.015,0,.022.022.022.067a.272.272,0,0,0,.076-.055c.022-.022.019-.048-.01-.077.014.045,0,.059-.033.045s-.055-.009-.055.021m.088-3.119c0-.03-.007-.048-.022-.055a.117.117,0,0,1-.044-.055.18.18,0,0,0,.066.11m.021,2.174a.179.179,0,0,1-.021-.077.075.075,0,0,0-.022-.054.248.248,0,0,1-.011.076q-.011.035.054.054m.022,11.028a.126.126,0,0,0-.043-.089c-.029.029-.037.056-.022.077a.045.045,0,0,0,.065.012m-.043-12.41c0-.029,0-.04.01-.033s.019,0,.033-.012c-.029,0-.043,0-.043-.011s-.007-.011-.022-.011a.083.083,0,0,0,.022.066m.021-1.318.022.023.022-.023c.03-.058.015-.074-.044-.044l-.021.022Zm0,4.767c.029,0,.041-.01.033-.033a.05.05,0,0,1,.01-.054c-.029,0-.044.029-.044.087m.11-1.844a.153.153,0,0,1-.022.13c.029.03.051.03.065,0s.045-.035.088-.021a.116.116,0,0,1,0-.1c.015-.037.008-.063-.022-.076-.014.029-.03.043-.043.043a.154.154,0,0,0-.067.023m-.022,10.564c.013.029.022.025.022-.01s-.008-.034-.022.01m.022-9.005c.014.029.026.029.033,0s0-.029-.033,0m.023-.067a.091.091,0,0,0,.066-.022.258.258,0,0,1,.066-.044c-.015-.074-.015-.117,0-.132s.014-.05,0-.109a1.036,1.036,0,0,1-.1.121.2.2,0,0,0-.033.186m.044-1.889c-.03,0-.044.008-.044.022.029,0,.044-.007.044-.022m-.044.769h.066c0-.058-.022-.079-.066-.065Zm0,.22c.029.029.039.029.033,0s-.019-.028-.033,0m.021-.7a.131.131,0,0,1,.088.023c-.015-.029-.01-.046.011-.055s.019-.018-.011-.033c-.015.03-.029.033-.043.011s-.029-.033-.045-.033Zm.067-.416a.035.035,0,0,0-.021-.033c-.016-.008-.022,0-.022.033.013-.015.022-.015.022,0s.008.014.021,0m.022.769q0-.023.023,0a.04.04,0,0,0-.045-.045c0,.03.007.045.022.045m0,10.674a.062.062,0,0,0,.056-.022.11.11,0,0,1,.054-.043c-.029,0-.044,0-.044-.011s-.017-.011-.044-.011a.124.124,0,0,1-.023.088m.023-9.774h.066a.068.068,0,0,1,0-.077c.014-.022,0-.042-.045-.055a.183.183,0,0,1-.01.067.151.151,0,0,0-.011.065m.153-.989c.059,0,.088-.007.088-.022-.058,0-.088.009-.088.022m.2,1.34c.015.029.025.029.033,0s0-.029-.033,0m.329,9.556a.123.123,0,0,1,.077.022.075.075,0,0,0,.078,0,.178.178,0,0,0,.033-.143.531.531,0,0,0-.033-.144q0,.113-.078.132c-.052.013-.077.058-.077.133m.616.022a.1.1,0,0,0,.011.1c.023.036.048.04.078.01-.029-.058-.02-.076.033-.054a.089.089,0,0,0,.12-.032c-.029,0-.04-.008-.033-.022s0-.022-.01-.022a.481.481,0,0,0-.1.01.505.505,0,0,1-.1.012m.2-10.215c-.015.074.014.11.087.11-.015-.029.016-.044.088-.044a.205.205,0,0,1-.054-.077.106.106,0,0,0-.056-.054c.016.042-.007.065-.065.065m.043-.2c-.014.045,0,.066.034.066s.047-.021.033-.066c-.029.014-.044.014-.044,0s-.007-.014-.022,0m.045-.22c.074.015.11.052.11.11a.1.1,0,0,0,.088.109q.086-.088,0-.142a.7.7,0,0,1-.133-.1.145.145,0,0,1,.012-.055c.008-.023,0-.026-.034-.011.015.029.011.044-.01.044s-.033.015-.033.044m.439,1.054c.045-.044.037-.066-.022-.066,0,.044.007.066.022.066m0,8.963c.029-.03.022-.059-.022-.087,0,.057.007.087.022.087m.022.616.088.043a.179.179,0,0,1,.034-.077c.021-.037.011-.063-.034-.077.014.044.008.066-.021.066a.07.07,0,0,0-.067.045m.176-.4a.132.132,0,0,0-.022-.089c0,.044-.021.059-.066.044s-.065-.014-.065,0a.21.21,0,0,0,.154.045m.087-.22c.046,0,.067-.015.067-.045H105.2c0,.015,0,.023-.012.023s-.011.007-.011.022m.11-9.643c.029,0,.043-.007.043-.021s.016-.014.045,0a.085.085,0,0,0-.045-.087c0,.029-.008.047-.021.054a.059.059,0,0,0-.022.054m.263.462a.812.812,0,0,0,.045-.11.1.1,0,0,0-.022-.109c-.015.028-.033.065-.054.109a.077.077,0,0,0,.031.11m.242,8.741c.014,0,.026-.015.033-.043s0-.044-.033-.044c.014.029.011.05-.011.066s-.019.021.011.021m.2-.394a.094.094,0,0,1,0,.087.043.043,0,0,0,.022.066q.021-.044.033-.012c.008.021.025.027.055.012a.165.165,0,0,1,0-.165c.029-.051-.008-.047-.11.012m.088.615a.261.261,0,0,0,.109-.033c.044-.022.052-.048.022-.076-.029.043-.058.054-.088.032a.219.219,0,0,1-.065-.077q-.022.043,0,.066a.129.129,0,0,1,.021.088m.022-1.253a.233.233,0,0,0,.12.121.285.285,0,0,1,.121.1c-.058.117-.037.191.067.219a.524.524,0,0,1,.285-.011A.612.612,0,0,0,107,44.4a.183.183,0,0,1-.055-.1.379.379,0,0,0-.055-.121,1.825,1.825,0,0,1-.362.011c-.14-.008-.195-.068-.165-.186-.074.015-.111,0-.111-.056s-.03-.077-.087-.077c0,.03-.01.048-.033.055a.052.052,0,0,0-.032.054m.131-1.976c.014,0,.037.015.066.045a.181.181,0,0,0,.022-.111c-.059.03-.088.051-.088.066m.154,1.889c.015-.029,0-.048-.033-.054s-.047,0-.033.032c.014,0,.022,0,.022.012s.014.01.044.01m.131.242c.059,0,.088-.013.088-.043-.029-.045-.058-.029-.088.043" transform="translate(-54.976 -17.445)" fill="#fff"/>
    <path id="Path_31165" data-name="Path 31165" d="M124.438,36.006c-.029.029-.021.051.022.066s.067.037.067.066c0,.148,0,.337-.011.572s-.015.479-.022.735-.011.506-.011.747v.625q-.023,1.12-.023,2.23t.023,2.1a2.062,2.062,0,0,0,.011.483c.022.162.047.308.076.439a.073.073,0,0,1,0,.076.419.419,0,0,0-.044.1l.022.021a.02.02,0,0,0,.022.023.54.54,0,0,1,.132.087,1.769,1.769,0,0,1,.12.132.571.571,0,0,0,.122.11l.044.022a.614.614,0,0,0,.35-.055,1.513,1.513,0,0,1,.419-.121.085.085,0,0,1,.087.054.13.13,0,0,0,.067.076.054.054,0,0,0,0-.087c-.031-.029-.022-.051.021-.065a1.434,1.434,0,0,1,.429.065.605.605,0,0,1,.318.219.8.8,0,0,1,.11.572.97.97,0,0,1-.187.328.769.769,0,0,1-.56.265.054.054,0,0,1-.087,0c-.324-.058-.63-.1-.924-.132s-.585-.058-.878-.088c-.029,0-.047.008-.055.022a.058.058,0,0,1-.054.022,2.374,2.374,0,0,0-.615-.01c-.25.022-.462.041-.638.054-.132.015-.26.025-.383.033a3.445,3.445,0,0,0-.429.056c-.161.029-.344.05-.549.066a1.638,1.638,0,0,1-.55-.045.576.576,0,0,1-.385-.252.8.8,0,0,1-.1-.561.531.531,0,0,1,.1-.341.635.635,0,0,1,.221-.176.741.741,0,0,1,.241-.065c.081-.007.144-.011.188-.011.117,0,.252.007.406.021s.311.036.472.067a.519.519,0,0,0,.418-.088.927.927,0,0,0,.262-.55,2.792,2.792,0,0,0,.121-.768c.008-.278,0-.55-.011-.812V37.489a2.42,2.42,0,0,0-.023-.341c-.044-.219-.083-.392-.121-.515a1.2,1.2,0,0,0-.208-.385.541.541,0,0,0-.417-.087q-.308.021-.527.043h-.045a.7.7,0,0,1-.318.066,1.221,1.221,0,0,1-.341-.044c-.029-.058-.021-.088.023-.088a.112.112,0,0,1-.11.023.8.8,0,0,0-.11-.044.053.053,0,0,1-.033-.011.043.043,0,0,0-.033-.012.974.974,0,0,1-.121-.232.878.878,0,0,1-.055-.317,1.107,1.107,0,0,1,.066-.3.633.633,0,0,1,.132-.187.02.02,0,0,0,.023-.022l.264-.131.043-.022a2.052,2.052,0,0,1,.67-.067c.228.015.4.03.517.044a2.886,2.886,0,0,0,.352.066,3.161,3.161,0,0,0,.394.022c.191-.014.377-.033.561-.054a4.349,4.349,0,0,0,.472-.079.645.645,0,0,1,.406.1.947.947,0,0,1,.23.317c.014.089.03.2.045.33a1.529,1.529,0,0,1-.022.439c0,.016-.011.029-.033.044s-.034.008-.034-.021Zm-3.711,9.335c.029,0,.04-.01.033-.033a.1.1,0,0,1,.011-.078c-.029.015-.043.013-.043-.012s-.015-.017-.044.012c.058,0,.073.037.044.11m.066.2c.029,0,.045-.006.045-.021a.061.061,0,0,1,.022-.045h-.067Zm.308-.5c-.03-.044-.052-.058-.067-.044s.007.03.067.044m.087.571a.177.177,0,0,0,.11-.022.057.057,0,0,0-.11.022m.066-.527q.045.043.045,0t-.045,0m.133.153c0-.014,0-.021.01-.021s.01-.008.01-.023-.021,0-.021-.011-.009-.011-.022-.011c-.031.045-.022.065.022.065m.219,0c0,.015.007.015.022,0s0-.021.01-.021.011-.008.011-.023h-.043Zm.131-.219a.189.189,0,0,1-.022-.076c0-.023-.014-.041-.043-.055a.086.086,0,0,0-.023.1.062.062,0,0,0,.088.033m-.022.087c.016.031.026.027.034-.01s0-.033-.034.01m1.6-13.881a1.159,1.159,0,0,1,.659.176,1.571,1.571,0,0,1,.439.439.97.97,0,0,1,.087.319,3.53,3.53,0,0,1,.023.405.329.329,0,0,1-.011.067.322.322,0,0,0-.012.066c-.029.073-.051.13-.066.176s-.036.1-.066.175a.151.151,0,0,0-.033.065.131.131,0,0,1-.033.067,1.2,1.2,0,0,1-.767.462,1.267,1.267,0,0,1-.44.01,1.083,1.083,0,0,1-.549-.274,1.386,1.386,0,0,1-.33-.406,1.76,1.76,0,0,1-.131-.494,1.2,1.2,0,0,1,.1-.517,1.475,1.475,0,0,1,.3-.406,1.687,1.687,0,0,1,.35-.23,1.068,1.068,0,0,1,.484-.1m-.791,13.289a.136.136,0,0,1-.033.087.151.151,0,0,0-.033.09.213.213,0,0,0,.152.066.254.254,0,0,0,.044-.144.164.164,0,0,0-.044-.121c0,.03-.011.036-.032.022a.041.041,0,0,0-.055,0m-.022.7c.029-.016.044-.008.044.021s.007.045.023.045a.07.07,0,0,1,.066-.077c.043-.008.065-.041.065-.1a.173.173,0,0,1-.1.054.2.2,0,0,0-.1.057m0,.4a.142.142,0,0,1,.087.065.087.087,0,0,0,.088.044.078.078,0,0,0,.088-.088c-.074-.029-.154-.058-.242-.088a.046.046,0,0,1-.01.033.046.046,0,0,0-.012.033m.308-1.163c0-.029-.018-.049-.056-.056s-.054,0-.054.01a.063.063,0,0,1,.044.022.09.09,0,0,0,.067.023m.021.789c.029-.029.034-.05.011-.065a.162.162,0,0,1-.055-.067c-.044.045-.03.089.044.132m-.066-.987c0,.073.008.084.021.031s.008-.062-.021-.031m.044.636c.03-.029.055-.029.077,0s.039.03.054,0c-.029,0-.033-.011-.01-.033a.061.061,0,0,0,.01-.077.827.827,0,0,1-.11.044c-.044.014-.051.037-.021.066m.045-9.818c0-.044-.014-.066-.045-.066a.036.036,0,0,1,.011.044c-.008.015,0,.022.034.022m.065,8.743a.029.029,0,0,1,0-.045c.014-.014.007-.021-.022-.021,0,.044.007.067.022.067m.044.945c-.016-.044-.01-.074.011-.088s.019-.037-.011-.067a.059.059,0,0,0-.066.067.087.087,0,0,0,.066.088m.065.329c-.043-.045-.065-.037-.065.021-.029.031-.022.038.022.023s.059-.029.043-.044m.022.263a.088.088,0,0,1,.012-.055.043.043,0,0,0,.011-.033.063.063,0,0,0-.045-.022c-.029,0-.043.008-.043.022q.043,0,.033.033c-.007.022,0,.041.032.055m-.043-4.371c.087,0,.131-.029.131-.088-.088-.014-.131.015-.131.088m.043,4.437h.044q0-.044-.044,0m.109-1.076a.077.077,0,0,1,.056-.022c.021,0,.025.022.011.065.088.03.132-.006.132-.11-.074.03-.114.027-.122-.011a.19.19,0,0,0-.054-.1.182.182,0,0,1-.011.132c-.022.058-.026.073-.012.044m0-2.461.088.044c0-.058.025-.073.077-.044s.084.015.1-.043c-.044.014-.066.007-.066-.022a.2.2,0,0,0-.022-.088c-.058,0-.1.019-.11.056a.272.272,0,0,1-.067.1m.067-6.457c0-.031.015-.044.045-.044a.039.039,0,0,0,.044-.044.071.071,0,0,0-.088.022c-.029.029-.029.05,0,.066m.11.241a.562.562,0,0,0,.176-.066.075.075,0,0,0-.1-.011.2.2,0,0,0-.076.077m.11,1.8a.15.15,0,0,0,.132-.066.152.152,0,0,0-.11-.044.178.178,0,0,1-.022.11m.088.4v-.045c-.015,0-.022,0-.022-.011s-.008-.011-.022-.011c0,.043.014.066.045.066m-.045,5.864c.029,0,.048,0,.054.013a.256.256,0,0,0,.055.031.229.229,0,0,1-.021-.1.081.081,0,0,0-.044-.077c.013.045.01.07-.012.077a.05.05,0,0,0-.033.054m.022-5.314a.107.107,0,0,1,.1.054.185.185,0,0,0,.1.077.32.32,0,0,0,.11-.177.3.3,0,0,0-.12-.067.451.451,0,0,1-.143-.064.142.142,0,0,1-.021.077.175.175,0,0,0-.022.1m.022,3.887c.028.015.044.029.044.044s.014.021.043.021a.172.172,0,0,0,0-.121.179.179,0,0,1-.022-.1c-.044,0-.065.007-.065.021.028.015.035.032.021.055a.136.136,0,0,0-.021.076m.021-6.722c.03,0,.044,0,.044.011s.016.011.045.011a.072.072,0,0,1-.022-.055c0-.022-.014-.033-.043-.033a.094.094,0,0,1-.023.066m0,6.261a.554.554,0,0,1,.166.033.136.136,0,0,1,.1.142.136.136,0,0,0,.11-.088.062.062,0,0,1-.033-.076.062.062,0,0,0-.033-.077.271.271,0,0,1-.2-.066.169.169,0,0,1-.055.066.153.153,0,0,0-.055.066m.066-3.822a.127.127,0,0,1-.011-.088c.006-.029,0-.037-.033-.022a.061.061,0,0,0-.012.066.052.052,0,0,0,.055.044m-.043,7.226c.029.03.05.045.066.045v-.066a.089.089,0,0,0-.066.021m.109-9.884c0-.03.008-.045.021-.045s.016-.013,0-.044c-.043,0-.065-.008-.065-.022,0,.089.014.125.043.111m-.021,2.5a.073.073,0,0,1,.066.033c.014.021.043.025.087.011a.212.212,0,0,1-.022-.1.208.208,0,0,0-.021-.1.142.142,0,0,1-.067.066.088.088,0,0,0-.043.088m.176,3.25c0-.058-.015-.081-.045-.066,0,.043.015.066.045.066m.044-3.031c-.016,0-.022-.011-.022-.033s-.015-.025-.045-.011a.074.074,0,0,0,.033.066c.022.016.033.008.033-.022m.132,3.1c-.029.016-.047.008-.055-.021s-.018-.029-.033,0c.015,0,.029.011.045.034s.029.018.044-.012m.044,3.932a.02.02,0,0,1,.021.023c0,.015.008.021.023.021a.277.277,0,0,1,.131-.065.2.2,0,0,1,.132,0,.621.621,0,0,1,.022-.166c.014-.05-.007-.084-.066-.1a.3.3,0,0,1-.12.154.471.471,0,0,0-.143.13m.263.089a.146.146,0,0,0,.1.011.078.078,0,0,1,.076.012c0,.116-.044.175-.132.175a.1.1,0,0,0-.075-.011c-.023.008-.041,0-.056-.033a.064.064,0,0,1,.011-.077c.022-.021.018-.04-.011-.054-.014.028-.058.028-.131,0a.171.171,0,0,0,.065.141q.067.057,0,.166a.3.3,0,0,0,.056.078c.021.021.047.018.075-.012-.043-.045-.066-.073-.066-.088a.269.269,0,0,1,.22-.077.155.155,0,0,0,.177-.1c-.015-.031-.033-.044-.056-.044s-.033-.015-.033-.045a.156.156,0,0,1,.088-.175c-.074.015-.136.03-.188.043a.216.216,0,0,0-.121.089M124.131,33c.045,0,.067-.006.067-.022a.094.094,0,0,0-.067.022m.023,4.371a.019.019,0,0,1,.022-.021v-.023h-.045c.03.029.037.044.023.044m0-1.581c.058.03.087.014.087-.044-.058,0-.087.015-.087.044m.046,5.71c.029-.058.029-.088,0-.088a.066.066,0,0,1-.022.045c-.014.014-.007.028.022.043m-.022,2.966c.088-.015.129,0,.122.054a.113.113,0,0,0,.054.121.094.094,0,0,1,.021-.067.083.083,0,0,0,.022-.066.121.121,0,0,0-.1-.065.123.123,0,0,1-.1-.067.13.13,0,0,0-.022.089m.11-8.721a.127.127,0,0,1,.087.022V35.7a.126.126,0,0,0-.087.044m.175,8.9a.051.051,0,0,0-.054.032c-.008.022-.026.026-.055.013.015.072.047.091.1.054a.29.29,0,0,0,.1-.1.182.182,0,0,1-.054-.1.408.408,0,0,0-.034-.1.3.3,0,0,1-.011.1.188.188,0,0,0,.011.1m.088.945c0-.029.011-.045.033-.045s.034-.014.034-.043c-.03-.013-.052-.013-.067,0s-.037.008-.065-.022c.028.074.05.111.065.111m.132.043c-.015,0-.021,0-.021-.01s-.016-.011-.044-.011c-.016.03-.008.047.022.054s.043,0,.043-.033m.11-.987c.029,0,.037.011.022.032a.046.046,0,0,1-.065.013c0,.029.007.042.021.042s.015.016,0,.045c.059-.015.092-.01.1.01a.219.219,0,0,0,.054.078.115.115,0,0,0,.023-.121.271.271,0,0,0-.067-.121c.015.03,0,.033-.033.012s-.054-.019-.054.011m.264.4c-.016-.014-.023-.051-.023-.109a.311.311,0,0,1-.1-.012c-.023-.007-.048,0-.078.033-.015.044,0,.069.033.077a.521.521,0,0,1,.1.033c-.03.03-.022.059.022.088a.482.482,0,0,0,.208-.045c.066-.028.078-.094.033-.2a.07.07,0,0,0,.067-.044.2.2,0,0,0-.143.078.275.275,0,0,1-.12.1m.043.352.2.066-.045-.088a.071.071,0,0,1,.022-.087.264.264,0,0,0-.077.055.271.271,0,0,1-.1.054m.066.22c.043.015.062.008.054-.022a.406.406,0,0,0-.032-.088c-.017.016-.022.052-.022.11m.614-.439c-.044,0-.066-.015-.066-.044a.038.038,0,0,0-.043-.044c.029.087-.008.129-.109.121a.173.173,0,0,0-.2.1c.057.015.1,0,.11-.034s.05-.047.109-.033a.119.119,0,0,0,.089.121.115.115,0,0,0,.131-.01.351.351,0,0,1-.067-.088c.031-.015.041-.029.034-.043s0-.023.033-.023a.1.1,0,0,0,.132.031c.059-.02.1,0,.11.079,0-.015.014-.037.044-.067a.51.51,0,0,0-.154-.241q-.044.176-.154.176m.418.417a.361.361,0,0,1,.2.109.094.094,0,0,0-.067-.121.115.115,0,0,0-.131.012" transform="translate(-66.638 -17.282)" fill="#fff"/>
    <path id="Path_31166" data-name="Path 31166" d="M139.068,48.639c.014-.029,0-.041-.054-.033s-.062-.011-.033-.055c.366.044.6-.145.7-.57a3.79,3.79,0,0,0,.078-.407,2.744,2.744,0,0,0,.011-.56V42.752q0-.5.021-.978a3.988,3.988,0,0,0-.087-1c-.029-.073-.059-.15-.088-.231a.4.4,0,0,0-.132-.186.859.859,0,0,0-.339-.132,1.882,1.882,0,0,0-.342-.011c-.118.008-.241.02-.373.033a1.316,1.316,0,0,1-.418-.022,1.412,1.412,0,0,1-.438-.154q-.2-.109-.221-.506a.574.574,0,0,1,.154-.538,1.139,1.139,0,0,1,.461-.23,1.262,1.262,0,0,1,.4-.021c.1.015.279.036.528.065.1.016.2.034.3.056a.591.591,0,0,0,.3-.012c.029,0,.044,0,.044.012s.007.01.023.01l.439-.054.439-.055c.366-.058.6.03.7.265a.569.569,0,0,1,.088.274V39.7c-.015.029-.041.036-.077.022s-.055-.008-.055.021a.349.349,0,0,1,.133.044v.132c.029.016.058,0,.087-.033s.059-.041.088-.011a.046.046,0,0,1-.011.065c-.023.015-.027.044-.011.088.029.016.055,0,.077-.033a.073.073,0,0,0-.011-.1c.029-.014.066,0,.109.043.014-.057.014-.077,0-.054s-.036.017-.066-.011a.432.432,0,0,0,.087-.133.9.9,0,0,1,.044-.154c.029-.028.048-.035.056-.022s.033.016.077,0c.015-.028.01-.04-.012-.033s-.026-.01-.011-.055a.046.046,0,0,1,.033.011.044.044,0,0,0,.033.012c-.029-.058,0-.109.087-.154a1.858,1.858,0,0,0,.2-.11,3.627,3.627,0,0,1,1.13-.593,7.009,7.009,0,0,1,.846-.2,4.8,4.8,0,0,1,1.3,0,4.409,4.409,0,0,1,1.362.417c.146.072.3.16.472.264a2.24,2.24,0,0,1,.428.329,1.277,1.277,0,0,0,.142.131.19.19,0,0,1,.055.065.059.059,0,0,0,.067.067.88.88,0,0,1,.218.263.02.02,0,0,0,.022.022l.023.021a.1.1,0,0,1,.021.067.039.039,0,0,0,.044.044l.022.02a1.311,1.311,0,0,0,.132.275,1.505,1.505,0,0,1,.132.275.129.129,0,0,1,.023.087.269.269,0,0,0,.032.143.54.54,0,0,1,.053.121,6.089,6.089,0,0,1,.155,1.4c0,.49-.007.992-.022,1.5v2.878q0,.309.011.583a3.643,3.643,0,0,0,.054.515,1.2,1.2,0,0,0,.077.242.621.621,0,0,0,.12.2.418.418,0,0,0,.276.154,1.758,1.758,0,0,0,.471-.022.04.04,0,0,1,.045.044.461.461,0,0,1-.165.2c-.08.058-.077.131.011.22.044-.015.055-.041.033-.077a.134.134,0,0,1-.011-.121.155.155,0,0,0,.066-.055c.016-.022.037-.018.067.012-.03-.146.021-.224.152-.231a1.64,1.64,0,0,0,.353-.054.091.091,0,0,0,.043-.012.1.1,0,0,1,.045-.01.641.641,0,0,1,.439.186.817.817,0,0,1,.2.318.73.73,0,0,1-.088.571,1.368,1.368,0,0,1-.318.274,1.27,1.27,0,0,1-.538.122,3.38,3.38,0,0,1-.637-.056,5,5,0,0,0-.658-.075,6.765,6.765,0,0,0-.813-.045c-.293,0-.564.008-.812.022-.162,0-.355.011-.583.033a2.4,2.4,0,0,0-.471.077c-.1.015-.2.025-.287.033a.415.415,0,0,1-.219-.033,1.8,1.8,0,0,1-.527-.2l-.023-.021a.092.092,0,0,0-.054-.054.052.052,0,0,1-.033-.056V49.5a.116.116,0,0,1-.1-.143.3.3,0,0,0-.033-.187.058.058,0,0,1-.022-.044q0-.417.186-.539a.987.987,0,0,1,.473-.142,1.429,1.429,0,0,1,.67.065.759.759,0,0,0,.538.022.57.57,0,0,0,.263-.307,1.553,1.553,0,0,0,.131-.54c.017-.2.023-.412.023-.648a.062.062,0,0,1,.022-.043.056.056,0,0,0,.021-.044.387.387,0,0,0,0-.187.628.628,0,0,1-.021-.164,1.446,1.446,0,0,0,.021-.253.8.8,0,0,0-.043-.254V43.17c0-.279,0-.535-.011-.77a2.724,2.724,0,0,0-.055-.526,4.1,4.1,0,0,0-.078-.407,2.383,2.383,0,0,0-.121-.32.065.065,0,0,1-.02-.043V41.06a.193.193,0,0,0-.067-.208.893.893,0,0,1-.154-.121.048.048,0,0,0-.012-.033c-.008-.007-.011-.025-.011-.054v-.088c-.029-.028-.054-.033-.076-.012s-.047.019-.077-.01a2.211,2.211,0,0,0-.648-.461,4.288,4.288,0,0,0-.89-.263,3.747,3.747,0,0,0-.923.022,4.453,4.453,0,0,0-.79.2,1.668,1.668,0,0,0-.55.3q-.219.188-.4.363c-.06.059-.117.113-.176.165a.359.359,0,0,0-.111.231.064.064,0,0,0-.021.043c-.029.015-.039.034-.033.054s0,.033-.033.033l-.023.024-.021.02a2.132,2.132,0,0,0-.132.385,1.662,1.662,0,0,1-.132.362V42.1a.24.24,0,0,1,.022.11,9.23,9.23,0,0,0-.12,1.384q-.013.724-.012,1.426v1.528c0,.286,0,.55.012.79s.018.421.033.538c.029.087.063.2.1.329a.47.47,0,0,0,.187.285.4.4,0,0,0,.263.087,1.8,1.8,0,0,0,.33-.032c.117-.023.234-.047.35-.078a1.406,1.406,0,0,1,.331-.042q.635,0,.68.68c.03.264-.01.435-.121.516a2.373,2.373,0,0,1-.406.231,1.05,1.05,0,0,1-.363.033c-.153-.008-.327-.021-.517-.044s-.379-.047-.57-.075-.358-.052-.5-.067a8.771,8.771,0,0,0-1.318.011q-.594.055-1.3.143a.126.126,0,0,1-.088.022.34.34,0,0,0-.1-.022.208.208,0,0,0-.1.045,2.236,2.236,0,0,1-.275-.022,1.251,1.251,0,0,1-.319-.088.617.617,0,0,1-.263-.231.858.858,0,0,1-.11-.473.611.611,0,0,1,.209-.527.757.757,0,0,1,.517-.131,1.638,1.638,0,0,1,.416.076,1.109,1.109,0,0,0,.44.054.465.465,0,0,0-.088.176.139.139,0,0,0,.088-.065c.015-.03.058-.037.132-.023m-.835-9.247c0-.073-.014-.1-.044-.088s0,.057.044.088m.067-.133c.029.029.043.029.043,0s-.015-.029-.043,0m.461.154q-.066-.042-.055,0c.006.029.026.029.055,0m.373,9.181c.014.03.022.025.022-.012s-.008-.033-.022.012m1.12-8.962c-.031,0-.044.008-.044.021.03,0,.044-.006.044-.021m-.022-.725c.014.059.025.066.033.022s0-.052-.033-.022m.132.155c.029,0,.059-.053.087-.155-.028,0-.042,0-.042-.01s-.016-.019-.045-.033a.235.235,0,0,1,0,.2m.045,6.413q.021.043.033,0c.008-.029,0-.029-.033,0m.109-4.547c.059,0,.1-.014.11-.044a.093.093,0,0,1-.077-.043c-.022-.029-.012-.052.032-.067-.029,0-.048-.01-.054-.033s-.026-.025-.054-.01v.1a.133.133,0,0,0,.043.1m.154,3.69c-.043,0-.065.007-.065.022.043.044.065.035.065-.022m-.043-5.733a.089.089,0,0,0,.087-.044.1.1,0,0,1-.077.012c-.022-.008-.025,0-.011.033m0,2.13c0,.074.008.083.021.034s.008-.063-.021-.034m.043,3.581a.07.07,0,0,0,.067-.044c.014-.029.007-.044-.022-.044Zm.088-5.14V39.5c.028.014.044.006.044-.022s-.008-.036-.022-.022-.008.016-.022,0m.022,1.669c0,.015,0,.019-.011.012s-.011,0-.011.009a.019.019,0,0,0,.022-.021m.067-1.164c-.029,0-.044.007-.044.022.029,0,.044-.008.044-.022m-.044.461c.015.03.022.026.022-.01s-.008-.033-.022.01m.022,1.231a.6.6,0,0,1,.483.087.09.09,0,0,1,.044-.111.122.122,0,0,0,.088.045.106.106,0,0,1-.011-.121c.022-.037.04-.07.054-.1a.075.075,0,0,1-.067-.033c-.014-.022-.043-.026-.087-.01,0,.029.017.047.055.054s.047.033.032.077l-.021.022v.021c-.074-.028-.125-.037-.154-.021a.657.657,0,0,1-.154.044.384.384,0,0,1-.022-.088c0-.014-.029-.014-.088,0,0-.044-.029-.081-.088-.109a.2.2,0,0,1-.01.154.554.554,0,0,0-.054.088m.044,4.151a.04.04,0,0,0-.044-.044c0,.044.014.059.044.044m.02-3.909c0-.029-.014-.044-.042-.044a.039.039,0,0,0,.042.044M140.936,46c.015-.043.007-.069-.022-.076s-.029-.034,0-.077c-.043,0-.065.008-.065.023a.064.064,0,0,1,.033.076c-.008.037.01.054.055.054m-.033-6.874c-.007,0-.012.008-.012.022h.023c0-.014,0-.022-.011-.022m.12.483c-.028,0-.043.008-.043.021.03,0,.043-.007.043-.021m0,.812q.111-.043.111.033c0,.051.036.077.11.077l-.066-.065c-.016-.015-.008-.037.022-.067a.061.061,0,0,1-.022-.044.364.364,0,0,0-.11.022c-.045.014-.058.029-.045.043m0-.461h.067c0-.029-.022-.036-.067-.022Zm.022,1.054c-.013-.015-.022-.015-.022,0a.02.02,0,0,1,.022.022Zm-.022.4c0,.029.009.043.022.043s.022.017.022.044c.058-.028.1-.028.11,0v-.087a.063.063,0,0,1-.078-.012c-.021-.021-.047-.017-.077.012m.133-1.254V40.05c-.015.03-.03.034-.044.011s-.037-.025-.067-.011c.03.074.067.109.111.109m.11.967c.014-.029.01-.046-.011-.055a.113.113,0,0,1-.055-.032c0,.029.007.048.022.055a.179.179,0,0,1,.044.033m-.022-.944a.276.276,0,0,0,.132.131.066.066,0,0,0,.022-.044.171.171,0,0,1,.021-.065.2.2,0,0,0-.076-.055c-.021-.007-.04-.034-.055-.077.015.03.007.043-.021.043s-.038.024-.022.067m.066,1.911c.015.03.022.026.022-.011s-.008-.033-.022.011m.088-.351c-.029.029-.045.036-.045.021h.022a.02.02,0,0,0,.022-.021m.131-1.45a.078.078,0,0,1,.11-.033c.045.023.067,0,.067-.077a.115.115,0,0,1-.1,0,.113.113,0,0,0-.1,0c0,.029,0,.046-.012.054s0,.027.033.055m-.021.132c.029.03.043.03.043,0s-.014-.029-.043,0m.043.879c-.029,0-.043.008-.043.023.029,0,.043-.008.043-.023m.044-.088c-.03,0-.044.007-.044.024.029,0,.044-.008.044-.024m0,.066c.014.045.022.047.022.012s-.008-.041-.022-.012m.022-1.3c.029.015.044,0,.044-.033s.015-.054.045-.054c-.03.014-.045.006-.045-.022a.038.038,0,0,0-.044-.044c-.03.03-.03.055,0,.076s.029.048,0,.078m.089,1.254v-.154c-.045,0-.067.025-.067.077s.022.077.067.077m.066-.154a.039.039,0,0,1-.045-.045.039.039,0,0,0-.044-.045.055.055,0,0,0,.022.077c.028.023.051.027.066.012m.35-1.6c0,.059-.014.088-.043.088a.217.217,0,0,0-.089-.022.451.451,0,0,1-.131.088.141.141,0,0,1-.153,0,.092.092,0,0,1-.022.067.145.145,0,0,1,.131.066c.029.044.066.044.11,0-.029,0-.044-.011-.044-.033s.015-.04.044-.055a.126.126,0,0,0,.088.044h.133c.029-.014.029-.033,0-.056s-.03-.039,0-.054.046-.033.054-.012a.052.052,0,0,0,.055.033.1.1,0,0,1,.077-.077c.037-.007.054-.04.054-.1-.015,0-.022,0-.022-.01s-.014-.012-.044-.012a.087.087,0,0,1-.087.044Zm-.088.352a.037.037,0,0,1-.012-.045c.008-.014-.011-.014-.055,0q-.02.045,0,.045c.013,0,.015.014,0,.044a.115.115,0,0,0-.1,0c-.022.015-.048.008-.077-.022,0,.03,0,.044-.011.044s-.01.014-.01.043c.042-.014.065-.01.065.012s.029.042.087.055c0-.044.015-.067.044-.067-.029.044-.033.071-.01.078a.051.051,0,0,1,.032.054.148.148,0,0,1-.11.043.087.087,0,0,0,.023.067.088.088,0,0,1,.021.066.064.064,0,0,1-.077.033.061.061,0,0,0-.075.032c.028,0,.042.019.042.056s.015.054.045.054a2.542,2.542,0,0,1,.22-.308.552.552,0,0,1,.329-.175c-.03-.057-.03-.1,0-.109a.136.136,0,0,0,.065-.066l-.131.066c0-.029-.046-.045-.132-.045a.075.075,0,0,1-.045.1.09.09,0,0,1-.11-.011c-.014-.03,0-.044.033-.044s.039-.015.01-.045-.039-.025-.033.012,0,.047-.032.033m-.242.988c.074.016.113.007.12-.022s.033-.044.077-.044c.013-.131-.019-.171-.1-.121a.174.174,0,0,0-.1.187m.044-1.362a.339.339,0,0,1-.023.109.2.2,0,0,1,.088-.054.091.091,0,0,0,.065-.055c-.029-.014-.047-.018-.055-.01s0,0,.011-.033a.126.126,0,0,0-.087.044m.374-.264q.066.044.066,0t-.066,0m.021.133c.03-.014.044-.007.044.022a.039.039,0,0,0,.043.044c0-.016.012-.019.033-.012s.026,0,.011-.033a.1.1,0,0,1-.054-.056.05.05,0,0,0-.054-.033c0,.029,0,.045-.011.045s-.011.008-.011.022m.11.4h.021c.03-.029.026-.044-.011-.044s-.047.015-.033.044Zm0-.44a.091.091,0,0,0,.076.011c.022-.006.041,0,.054.034-.014.029-.033.033-.054.011s-.025-.011-.011.033c.074,0,.11-.015.11-.044a.493.493,0,0,1-.066-.076.1.1,0,0,0-.089-.034.048.048,0,0,1-.011.034.044.044,0,0,0-.01.032m.087.33c.044-.014.07-.006.078.021a.052.052,0,0,0,.055.044c.015-.072.054-.094.121-.066a.2.2,0,0,1,.121.11.071.071,0,0,1,.021-.044c.015-.014.015-.037,0-.066l-.131-.087c-.042-.03-.087-.017-.131.042a.119.119,0,0,1-.011-.088c.006-.029,0-.036-.033-.022.029.058.022.1-.021.109s-.067.031-.067.045m.044.4c.03.029.056.032.078.011a.3.3,0,0,0,.055-.078.176.176,0,0,1-.077.022.064.064,0,0,0-.056.044m.177-.088c.028.03.05.033.065.012s.021-.018.021.01c-.059,0-.087.022-.087.067a.209.209,0,0,1,.131.054c.042.037.08.034.109-.011q-.132,0-.132-.087c.043,0,.065-.008.065-.022a.051.051,0,0,0-.054-.033.046.046,0,0,1-.054-.009.056.056,0,0,0,.012-.057c-.008-.021,0-.032.032-.032a.02.02,0,0,1,.022.022c0,.014.015.022.042.022a.979.979,0,0,1,.242-.154.176.176,0,0,0-.076-.022c-.023,0-.041-.014-.055-.044a.243.243,0,0,1-.2.132.2.2,0,0,1-.065.076.055.055,0,0,0-.022.078m.042-.988c.03.03.04.03.034,0s-.02-.029-.034,0m.089.263c.029-.029.033-.054.01-.076s-.01-.034.032-.034a.131.131,0,0,0,.056.034c.022.007.033-.012.033-.054a.131.131,0,0,1-.076-.023.111.111,0,0,0-.1,0,.073.073,0,0,1,.022.088.042.042,0,0,0,.022.065m.109-.219h-.022c.044-.014.066,0,.066.043a.236.236,0,0,0,.077-.01.237.237,0,0,1,.077-.012.14.14,0,0,0-.1-.109.277.277,0,0,1-.121-.065c-.029.015-.025.029.011.043s.048.037.033.066h-.066a.093.093,0,0,0,.022.065c.015.014.022.008.022-.021m.066.637c0-.058-.008-.087-.022-.087a.051.051,0,0,0-.033.064c.008.03.025.037.054.023m-.044-.483v.109c.044,0,.063-.015.055-.044s.012-.021.056.022a.158.158,0,0,1-.023-.075c0-.022-.014-.034-.044-.034,0,.015-.014.023-.044.023m.088.438h.088c0,.031.007.045.023.045a.122.122,0,0,0-.023-.087.091.091,0,0,0-.088.042m.023-.461q.043.046.032,0c-.007-.029-.019-.029-.032,0m0,9.71a.087.087,0,0,0,.043.087.1.1,0,0,1,.022-.055c.015-.022.007-.041-.022-.054a.066.066,0,0,1-.043.022m.043-.088c.059-.03.067-.044.022-.044s-.052.014-.022.044m.045-9.929c-.016,0-.023.007-.023.023h.044c0-.016-.007-.023-.021-.023m0,.242a.119.119,0,0,0,.087.011.053.053,0,0,0,.045-.055c-.045,0-.066-.008-.066-.021-.03-.029-.038-.044-.022-.044,0,.03-.008.048-.022.054s-.021.025-.021.055m.021.659a.019.019,0,0,0-.021.022h.044a.02.02,0,0,0-.022-.022m.11-.835a.039.039,0,0,0-.045-.043c0,.029.015.043.045.043m0,9.8c-.03.029-.045.035-.045.021.029,0,.045-.008.045-.021m-.022-9.073c.074,0,.11.03.11.088a.119.119,0,0,0,.087-.023q.022-.042,0-.042c-.015,0-.014-.014,0-.045-.029.031-.047.038-.054.022a.392.392,0,0,0-.055-.064c-.014.029-.033.04-.055.032s-.033,0-.033.033m0,.133c.014.03.026.03.033,0s0-.029-.033,0m.22,9.072H143.4c-.029,0-.043-.008-.043-.023s-.015-.021-.044-.021a.042.042,0,0,1-.012.033.052.052,0,0,0-.01.033.051.051,0,0,1,.055.033.1.1,0,0,0,.054.055c-.014-.058-.008-.087.022-.087a.072.072,0,0,0,.067-.045.091.091,0,0,1-.077-.043c-.022-.03-.041-.03-.055,0a.065.065,0,0,0,.043.022c.015,0,.022.015.022.044m-.11-9.841a.324.324,0,0,0,.132.044c.015-.029,0-.055-.044-.077s-.074-.011-.087.033m.132.7c0-.028.007-.042.023-.042s.022-.006.022-.023c-.03-.013-.052-.01-.067.011s-.008.041.022.054m0-.746a.047.047,0,0,1,.033.011c.008.009.026.012.056.012-.03-.059-.051-.088-.066-.088a.09.09,0,0,1-.023.066m.045.175c0-.028.006-.039.021-.032a.036.036,0,0,1,.022.032c.015-.058,0-.088-.044-.088.014.029.011.049-.012.055s-.018.018.012.032m.044,9.732c-.016.074-.011.084.012.033s.016-.062-.012-.033m.066-9.907q.044.042.032,0c-.006-.029-.017-.029-.032,0m.044-.153c.014,0,.023.022.023.066a.24.24,0,0,0,.109-.089.1.1,0,0,1-.1,0c-.022-.017-.034-.007-.034.023m.044.812a.086.086,0,0,1,.066-.011c.014.008.022,0,.022-.032a.131.131,0,0,0-.088.042m.066-.2h.022c.029-.031.025-.044-.011-.044s-.047.008-.033.022Zm.175-.265c0-.029-.013-.042-.043-.042a.036.036,0,0,1,.011.042c-.008.015,0,.015.032,0m.088,0v.045c.028.015.048.007.054-.022s0-.037-.032-.023c0,.015-.009.015-.022,0m.373-.154c.029-.016.037,0,.022.033s-.008.048.023.033c0-.029.007-.047.02-.054a.061.061,0,0,0,.022-.055c-.059,0-.087.015-.087.044m.175.374c.016.029.023.025.023-.011s-.007-.034-.023.011m.155.087c0-.028,0-.043.012-.043s.011-.015.011-.044H144.7c-.029.044-.021.073.023.087m0-.571c.044,0,.066-.014.066-.044-.016,0-.022-.007-.022-.021h-.044Zm0,.263v.023c.029.029.046.026.054-.011s0-.049-.032-.034a.019.019,0,0,1-.022.022m.175,10.061a.129.129,0,0,1,.033-.066c.021-.029.01-.043-.033-.043a.088.088,0,0,1-.022.065c-.016.014-.008.03.022.044m-.022-10.016h.022v.044h-.022Zm.022.109a.283.283,0,0,1,.165.011c.066.022.084.063.055.122a.1.1,0,0,0,.034-.088.089.089,0,0,1,.032-.089c-.029.015-.059-.014-.088-.087a.155.155,0,0,1-.132-.023.124.124,0,0,1-.022.088.223.223,0,0,0-.044.066m.131,10.236c.015.029.025.029.034,0s0-.03-.034,0m.242-10.346c.029-.014.052-.014.067,0s.03.007.044-.022c-.044-.045-.081-.037-.11.022m0,10.389c.045,0,.067-.014.067-.043-.044-.045-.067-.03-.067.043m.285-9.994c0,.06,0,.067.012.022s0-.051-.012-.022m.133-.2c.043.013.072.011.086-.011a.192.192,0,0,1,.067-.055c0-.029-.018-.032-.054-.011s-.049,0-.032-.077H145.7a.149.149,0,0,1,0,.154m.021.306c.058.016.092.012.1-.009a.1.1,0,0,1,.054-.056.019.019,0,0,1-.022-.022.019.019,0,0,0-.021-.022c0,.03-.018.044-.054.044s-.055.023-.055.065m.087-.152c0-.044-.006-.066-.022-.066s-.006.037.022.066m.044-.308a.12.12,0,0,0,.087-.043c-.058-.014-.066-.033-.022-.056s.051-.047.022-.077c-.028,0-.043-.008-.043-.022a.305.305,0,0,0-.066.1.086.086,0,0,0,.021.1m0-.4h.044c.029-.029.021-.05-.022-.066a.085.085,0,0,1-.022.066m.022.726c.03.014.051.01.066-.012a.171.171,0,0,1,.066-.055.454.454,0,0,0-.132.067m.066-.616a.126.126,0,0,1,.066.109c.03,0,.045-.036.045-.109-.045-.029-.081-.029-.111,0m.066.68c.045-.013.073-.01.09.011a.134.134,0,0,0,.065.054c.028-.028.044-.049.044-.065-.029-.013-.066-.028-.108-.044a.063.063,0,0,0-.09.044m.09-.746c.027.029.038.029.032,0s-.019-.029-.032,0m.042.4c.029,0,.037.015.022.044s-.007.037.022.023a.372.372,0,0,1,.11-.111.156.156,0,0,0-.154.044m.089.483c-.03,0-.045.008-.045.021.029,0,.045-.007.045-.021m.109-.638c.015,0,.037-.036.066-.109a.252.252,0,0,1-.066-.044.092.092,0,0,0-.067-.022c-.028.044-.033.077-.01.1s.047.048.076.076m-.067.945a.126.126,0,0,0,.087-.044c-.058,0-.087.015-.087.044m.067-.153a.371.371,0,0,1,.088.011.089.089,0,0,0,.087-.033.144.144,0,0,1-.077-.022.736.736,0,0,0-.078-.045.139.139,0,0,0-.021.089m.088-.66a.077.077,0,1,0,.022-.065.077.077,0,0,0-.022.065m0,.813c.028,0,.042.008.042.022.03.016.049.011.057-.011s.024-.025.054-.011q-.024-.043.012-.066c.024-.015.017-.029-.012-.044a.372.372,0,0,1-.088.033c-.03.007-.051.033-.065.076m.131-.878c.029.057.052.069.067.033s-.007-.047-.067-.033m.067,1.076c.013-.014.013-.036,0-.067-.015-.014-.037.008-.067.067.06.015.089.043.089.087a.2.2,0,0,1,.219.045c-.045-.059-.03-.1.043-.132-.043-.014-.051-.036-.021-.067s.021-.05-.022-.064a.226.226,0,0,1-.242.131m.176,9.313a.02.02,0,0,1,.02-.022c.031,0,.045,0,.045.011s.008.011.022.011c.014-.043-.008-.066-.067-.066.015.015.008.027-.02.033s-.03.019,0,.033m0-10.082c.028.016.047,0,.054-.044s0-.066-.034-.066a.19.19,0,0,0-.02.109m.154-.065h0m-.022,10.235c.014.029.022.029.022,0s-.008-.029-.022,0m.022-.066c.014,0,.023.006.023.022a.125.125,0,0,0,.086-.045c-.074-.029-.108-.022-.108.023m.066-9.622c-.031.029-.043.037-.043.022a.066.066,0,0,0,.043-.022m.109.769c.015-.029,0-.044-.032-.044s-.054.008-.054.022c.028,0,.043,0,.043.011s.015.011.043.011m.023-.418c.013.074.025.085.033.033s0-.061-.033-.033m.088.44a.1.1,0,0,0-.033-.077c-.022-.023-.042-.019-.055.01.029-.015.043,0,.043.033s.015.048.045.033m.022-.33c.014.03.022.025.022-.011s-.008-.033-.022.011m.11,1.516c.029.029.045.029.045,0s-.016-.029-.045,0m.11-.4h-.043a.036.036,0,0,1,.032.022c.006.015.011.007.011-.022m-.022.22c.029.013.045,0,.045-.034s-.016-.046-.045-.032Zm.022,2.349c.044-.045.047-.065.012-.065s-.042.021-.012.065m.088-1.712c.029-.016.032-.033.009-.056s-.039-.018-.053.011a.021.021,0,0,1,.022.023c0,.015.006.022.022.022m-.044.153.088.044a.074.074,0,0,0,0-.077.143.143,0,0,1-.022-.077c-.043-.014-.065.022-.065.109m.044,2.4a.125.125,0,0,0,.109-.066h-.066c-.014,0-.029.021-.043.066m.043,1.4v-.065c-.029.015-.043.029-.043.044s.015.021.043.021M147.59,42a.1.1,0,0,0,.078.055.08.08,0,0,0,.077-.011.07.07,0,0,1-.077-.066.207.207,0,0,0-.055-.109q.021.066,0,.076c-.014.008-.022.025-.022.055m.044.417c.044-.014.063,0,.056.033s0,.049.032.033.036-.033.022-.054a.072.072,0,0,1,0-.077.02.02,0,0,1-.022-.023q0-.021-.044,0c0,.029,0,.045-.01.045s-.018.014-.033.043m.132,1.1c-.014-.015-.03-.029-.044-.045s-.044-.014-.088,0c0,.03.021.052.066.065s.066.009.066-.021m-.021-2.7c-.015,0-.022.007-.022.023a.02.02,0,0,0,.022-.023m.066,3.844-.044-.043c-.014.03-.011.052.012.066s.033.008.033-.023m-.044-4.809c.015.03.023.03.023,0s-.008-.029-.023,0m.111.922h-.067c-.015.044,0,.067.033.067s.047-.023.033-.067m-.045,3.493a.174.174,0,0,0,.111-.034.419.419,0,0,1,.11-.055c-.074.031-.1,0-.066-.087.043,0,.066-.006.066-.021a.168.168,0,0,0-.187.021.14.14,0,0,0-.034.177m0,3.558c0,.059.008.1.023.109,0-.073.022-.1.066-.087a.424.424,0,0,0,.132.021c0-.029-.008-.044-.023-.044s-.021-.014-.021-.043a.18.18,0,0,1-.1.011c-.022-.008-.048,0-.078.033m.023-.835c.015-.029.029-.032.043-.011s.029.02.045-.011c0-.073-.016-.11-.045-.11a.072.072,0,0,1-.043.067c-.03.014-.03.037,0,.065m.022.594a.07.07,0,0,1,.021-.046c.015-.013.006-.028-.021-.043a.109.109,0,0,1-.022.055c-.015.022-.008.033.022.033m-.022-6.832c.015.03.022.027.022-.011s-.008-.033-.022.011m.043.527c-.029,0-.043.008-.043.022.029,0,.043-.008.043-.022m-.043,4.459c0,.013.015.025.043.033a.053.053,0,0,0,.066-.033c-.044,0-.062-.023-.054-.066s-.012-.067-.055-.067a.083.083,0,0,1,.011.067.151.151,0,0,0-.011.066m.066-5.514a.02.02,0,0,0-.022.022c0-.014,0-.02.012-.012s.011,0,.011-.011m.044,6.173c.029.029.029.025,0-.011s-.03-.034,0,.011m-.021-1.955a.06.06,0,0,0,.087.011.08.08,0,0,1,.088-.011c.029.073.058.109.088.109a.078.078,0,0,1,.088-.087.146.146,0,0,0-.153-.089,1.565,1.565,0,0,0-.2.067m.021-2.988h.044c.015-.029.007-.047-.022-.054s-.037,0-.022.033q.021,0,0,.021m.066.2c.03-.03.025-.044-.012-.044s-.054.007-.054.021Zm.088,5.052c-.029,0-.051-.023-.065-.065s-.044-.045-.088,0a.094.094,0,0,1,.077.054c.022.037.048.041.077.011m-.088-.659c0-.029.011-.044.033-.044s.032-.013.032-.043a.1.1,0,0,0-.077.043c-.021.03-.017.044.012.044m0-4.547c.014.03.023.027.023-.01s-.008-.034-.023.01m.066.945a.124.124,0,0,0-.043-.088.106.106,0,0,1,.011.077c-.008.022,0,.027.032.011m-.043,2.416c.029.059.043.066.043.021s-.013-.05-.043-.021m.022.088c-.03.044-.022.058.021.044s.037-.029-.021-.044m.067-1.538a.149.149,0,0,1,.131-.033.424.424,0,0,1,.131.033c0-.058-.037-.081-.109-.065a.132.132,0,0,1-.153-.045c.013.029.009.051-.012.065s-.019.031.012.045m0,2.284a.042.042,0,0,0,.065-.021c.015-.029.015-.043,0-.043-.014.028-.033.039-.056.031s-.024,0-.009.033m.065-2.13V43.5c-.044,0-.065.008-.065.023.028-.015.039-.007.032.021s0,.038.033.023m0-2.065a.035.035,0,0,0-.022-.033c-.015-.007-.022,0-.022.033.014-.015.022-.015.022,0s.008.015.022,0m.022,3.471c.029.043.044.047.044.01s-.015-.039-.044-.01m0,3.075c.029-.029.036-.023.022.022s-.008.065.022.065a.2.2,0,0,0,.022-.087q0-.043-.066-.066Zm.04-6.048.044-.044c-.015,0-.021-.006-.021-.022h-.044c0,.044.007.066.022.066m0,2.263c-.015.043,0,.062.044.055s.059,0,.045.033c-.045.043-.045.1,0,.174a.258.258,0,0,0-.11.243.4.4,0,0,1,.176.108.18.18,0,0,0,.044-.131c-.073,0-.109-.013-.109-.044a.12.12,0,0,0,.055-.045.118.118,0,0,1,.054-.043.809.809,0,0,1,.011-.142.568.568,0,0,0,.012-.12.1.1,0,0,1-.11-.088.02.02,0,0,0-.021-.022c0,.015-.03.022-.088.022m0,2.723c.044,0,.066-.007.066-.022-.044,0-.066.008-.066.022m.088-2.086c-.03,0-.045.006-.045.021a.067.067,0,0,0,.045-.021m-.045.284h.045a.04.04,0,0,0-.045-.044Zm0,.133a.035.035,0,0,1,.045-.01c.014.007.014,0,0-.034h-.045Zm0,.966h.154c.014-.044-.007-.069-.067-.078s-.087.019-.087.078m.045-2.153c.014,0,.021.023.021.066.03,0,.058-.029.088-.088-.029.015-.052.015-.067,0s-.029-.006-.043.022m.021,3.449c.03,0,.051-.026.066-.078s.006-.076-.022-.076a.18.18,0,0,0-.023.076.179.179,0,0,1-.021.078m.175-3.295q0-.066-.087-.066c-.029.03-.029.055,0,.076a.06.06,0,0,0,.087-.01m0,1.121c0-.016-.014-.027-.042-.034a.054.054,0,0,0-.067.034.183.183,0,0,1,.067.022c.028.014.042.005.042-.022m0,.152c.015.06.008.088-.022.088a.069.069,0,0,0-.065.044c.03.03.08.03.153,0s.089-.073.046-.133Zm0-1.4c.015.042.023.047.023.01s-.008-.04-.023-.01m.725,5.534c0-.044-.008-.066-.022-.066-.042.044-.037.066.022.066m.2-.571c.015.03.021.025.021-.01s-.007-.034-.021.01" transform="translate(-76.033 -21.259)" fill="#fff"/>
    <path id="Path_31167" data-name="Path 31167" d="M181.21,34.711a1.431,1.431,0,0,1,.418.923,1.256,1.256,0,0,1-.079.681,3.47,3.47,0,0,1-.3.483,1,1,0,0,1-.79.307l-.308-.077a.8.8,0,0,1-.307-.186,1.268,1.268,0,0,1-.2-.385.514.514,0,0,1,.089-.494c.073-.1.131-.179.175-.231a1.537,1.537,0,0,1,.175-.165v-.022a.768.768,0,0,0-.121-.132l-.165-.131c-.014-.029-.008-.04.022-.033a.052.052,0,0,0,.066-.033c-.074-.015-.165-.029-.275-.043a.467.467,0,0,1-.275-.133h-.066a.334.334,0,0,1-.153.055,1.28,1.28,0,0,0-.221.056,2.862,2.862,0,0,0-.339.121.666.666,0,0,0-.319.317,1.981,1.981,0,0,0-.166.374,1.552,1.552,0,0,0-.054.44v.175q.065.044.4.308a3.456,3.456,0,0,1,.373.341,1.488,1.488,0,0,1,.264.407.72.72,0,0,1,.187.229c.051.1.106.2.163.319a3.305,3.305,0,0,1,.21.725,3.735,3.735,0,0,1,.077.615,2.934,2.934,0,0,1-.119.988,4.314,4.314,0,0,1-.342.814c-.117.16-.239.318-.362.471a3.693,3.693,0,0,1-.539.517c-.1.073-.216.149-.34.229a2.271,2.271,0,0,1-.341.187,3.752,3.752,0,0,1-.418.155c-.177.055-.321.1-.438.131a4.008,4.008,0,0,1-.758.131,5.328,5.328,0,0,1-.823-.021,5.436,5.436,0,0,1-.66-.1,2.976,2.976,0,0,1-.571-.165.144.144,0,0,1,.045-.121.688.688,0,0,0,.088-.076.13.13,0,0,0-.022-.076.147.147,0,0,1-.022-.077.171.171,0,0,1-.121.175.11.11,0,0,0-.077.155,5.565,5.565,0,0,1-.537-.2,5.547,5.547,0,0,0-.54-.2.822.822,0,0,0-.746.2,1.23,1.23,0,0,0-.221.351.8.8,0,0,0-.065.483,1.052,1.052,0,0,0,.472.659,2.173,2.173,0,0,0,.78.263c.22.029.537.055.956.077s.816.026,1.2.011a5.465,5.465,0,0,1,.911.033q.45.055.671.076c.2.03.4.052.594.067a.876.876,0,0,1,.483.175.124.124,0,0,0,.088.044.17.17,0,0,0,.121,0,.315.315,0,0,1,.121-.022h.065a4.628,4.628,0,0,1,.714.275,6.581,6.581,0,0,1,.648.362.133.133,0,0,1,.043.089l.021.022c0,.015.008.021.023.021.044,0,.066.015.066.044a.287.287,0,0,0,.12.132c.051.029.107.058.165.087a.07.07,0,0,1,.022.044.478.478,0,0,0,.066.11.792.792,0,0,1,.275.3,1.937,1.937,0,0,0,.229.341v.045l.022.042c0,.059-.012.1-.033.11s-.018.044.011.088c0,.044.015.066.044.066a.1.1,0,0,1,.078.054.437.437,0,0,0,.077.1.045.045,0,0,0,.011.033.093.093,0,0,1,.012.054,2.089,2.089,0,0,1,0,.4c-.017.117-.032.271-.046.46v.089a.186.186,0,0,1,.022.067.059.059,0,0,0,.023.043V48.4a2.145,2.145,0,0,1-.365.955,6.362,6.362,0,0,1-.471.539,2.609,2.609,0,0,1-.462.373,5.055,5.055,0,0,1-.572.351,3.806,3.806,0,0,1-.637.252c-.219.065-.461.136-.725.209-.087.016-.2.037-.341.066s-.289.055-.449.077-.326.037-.5.045-.326.011-.472.011a.794.794,0,0,1-.2-.022l-.175-.044a4.477,4.477,0,0,0-.462.023,4.313,4.313,0,0,1-.439.021,4.9,4.9,0,0,1-.649-.044c-.228-.028-.443-.066-.648-.109s-.388-.089-.55-.132a2.33,2.33,0,0,1-.329-.109,1.42,1.42,0,0,1-.329-.112,4.382,4.382,0,0,1-.4-.2c-.136-.076-.26-.146-.384-.219a1.578,1.578,0,0,1-.275-.2,3.976,3.976,0,0,1-.46-.45,2.462,2.462,0,0,1-.35-.6,2.418,2.418,0,0,1-.21-.79,3.78,3.78,0,0,1,.033-.856,1.553,1.553,0,0,0,.066-.209,1.2,1.2,0,0,1,.065-.209,3.342,3.342,0,0,1,.429-.67,2.76,2.76,0,0,1,.715-.561c.072-.043.164-.1.274-.153a3.035,3.035,0,0,1,.34-.154V45.43a2.843,2.843,0,0,0-.329-.154,1.681,1.681,0,0,1-.374-.2,3.052,3.052,0,0,1-.638-.571,1.65,1.65,0,0,1-.4-1.009,1.882,1.882,0,0,1,.154-1,1.835,1.835,0,0,1,.372-.538,2.4,2.4,0,0,1,1.1-.66.129.129,0,0,1,.088-.044.125.125,0,0,0,.088-.044,1.836,1.836,0,0,1-.287-.471,2.036,2.036,0,0,1-.153-.429,2.894,2.894,0,0,1-.133-.725,3.208,3.208,0,0,1,.067-.811,1.909,1.909,0,0,1,.067-.275c.028-.1.058-.187.087-.275a2.224,2.224,0,0,1,.275-.538,5.215,5.215,0,0,1,.362-.45,3.324,3.324,0,0,1,.857-.7A3.5,3.5,0,0,1,174.2,36.1a5.106,5.106,0,0,1,1.253-.154,5.826,5.826,0,0,1,.614.034,3.9,3.9,0,0,1,.681.142,1.916,1.916,0,0,1,.076-.56,5.306,5.306,0,0,1,.187-.517,1.655,1.655,0,0,1,.351-.483,1.47,1.47,0,0,1,.55-.351,1.39,1.39,0,0,1,.593-.2,2.967,2.967,0,0,1,.681-.044,2.5,2.5,0,0,1,.6.022q.231.043.537.132a1.526,1.526,0,0,1,.462.242,3.461,3.461,0,0,1,.417.35M170.886,46.859a.027.027,0,0,1,.043,0v-.044c-.014,0-.021,0-.021-.012s-.014-.01-.045-.01c0,.044.008.066.022.066m.373,2.459a.2.2,0,0,1-.054-.033.091.091,0,0,0-.055-.01c-.03.042-.018.064.033.064s.077-.007.077-.022m.154-2.218a.057.057,0,0,0-.065-.066c0,.029.008.043.022.043a.063.063,0,0,1,.043.023m.286,2.877a.267.267,0,0,0-.054-.043c-.021-.014-.032,0-.032.043a.045.045,0,0,1,.065.013c.015.021.021.017.021-.013m.11-3.118c.03-.029.026-.048-.01-.056s-.055,0-.055.034a.04.04,0,0,1,.033.011.053.053,0,0,0,.033.011m4.349-.9c-.22-.014-.464-.023-.735-.023a6.447,6.447,0,0,0-.779.045l-.473.065a5.431,5.431,0,0,0-.583.111,5.832,5.832,0,0,0-.57.208,2.97,2.97,0,0,0-.484.252,1.5,1.5,0,0,0-.768,1.121,1.589,1.589,0,0,0,.033.527,1.391,1.391,0,0,0,.208.418,1.235,1.235,0,0,0,.44.438c.175.1.306.185.4.242a.9.9,0,0,0,.208.121,2.851,2.851,0,0,0,.483.154,8.1,8.1,0,0,0,.8.142,9,9,0,0,0,1.186.066,7.412,7.412,0,0,0,1.3-.1,5.2,5.2,0,0,0,.921-.241,3.716,3.716,0,0,0,.6-.286c.153-.1.266-.173.341-.231a2.656,2.656,0,0,0,.46-.374l.022-.043c0-.087.014-.139.043-.154v-.044a.272.272,0,0,1-.011-.121.691.691,0,0,0,.011-.142.153.153,0,0,0,.1.011.613.613,0,0,1,.12-.011l.022-.022a1.022,1.022,0,0,0-.154-.131c-.014-.043-.008-.066.022-.066s.037-.016.021-.044a.068.068,0,0,0-.066-.045.07.07,0,0,1-.066-.043,1.164,1.164,0,0,0-.109-.483c.073-.013.118-.008.132.023a.145.145,0,0,0,.087.065.1.1,0,0,0,.033-.1.2.2,0,0,0-.054-.1.056.056,0,0,1-.088,0,.147.147,0,0,0-.109-.044.074.074,0,0,0-.011.066c.007.015,0,.022-.033.022a1.287,1.287,0,0,0-.372-.462,4.33,4.33,0,0,0-.44-.307q.043-.088.176-.044c.088.03.139.008.154-.065a.1.1,0,0,1-.066.021c-.059,0-.081-.03-.067-.087,0-.074.03-.088.087-.044s.1.029.111-.044a.073.073,0,0,0-.088-.055.158.158,0,0,1-.11-.012.125.125,0,0,0-.01.09c.007.029,0,.042-.033.042-.088-.029-.143-.019-.164.034a.276.276,0,0,1-.1.12,5.176,5.176,0,0,0-1.978-.438m-4.216-.617a.087.087,0,0,0,.088-.043c-.03,0-.043,0-.043-.012s-.008-.011-.022-.011,0,.023-.012.023-.011.015-.011.043m.066-4.481v.067c.044.014.066.008.066-.023a.069.069,0,0,1,.045-.065.18.18,0,0,0-.11.021m.066.418c0,.073.008.084.023.033s.006-.062-.023-.033m.088.418c0-.073-.015-.112-.043-.112a.079.079,0,0,0-.045.077c0,.038.029.048.088.034m-.022,4a.048.048,0,0,1,.033.01c.006.008.025.011.054.011a.052.052,0,0,0-.044-.054c-.028-.007-.044,0-.044.033m.022-4.458c.029.029.048.025.055-.012a.064.064,0,0,0-.033-.077.135.135,0,0,0-.022.089m.549,1.054c0-.058-.013-.089-.044-.089,0,.075.014.1.044.089m-.044,3.14v.023h.044c.029-.029.021-.045-.021-.045a.019.019,0,0,1-.022.022m.065.331a.445.445,0,0,0-.032.109.127.127,0,0,0,.032.11.43.43,0,0,1,.1-.176c.052-.058.063-.11.034-.154-.03.1-.074.14-.133.111m0-4.724c.031-.028.057-.032.077-.011s.034.011.034-.032c-.015.015-.042.015-.077,0s-.048,0-.034.043m.023,5.119c.029,0,.044-.007.044-.023-.029,0-.044.008-.044.023m.133-.726c.013-.043-.008-.065-.067-.065a.059.059,0,0,0,.067.065m.087.771v.042a.02.02,0,0,1,.023.023.145.145,0,0,0,.032-.055c.008-.022,0-.033-.032-.033a.021.021,0,0,1-.023.023m.045-5.4v.043c.029.015.048.008.055-.022s0-.043-.033-.043a.02.02,0,0,1-.022.023m.109-4c.043,0,.066-.018.066-.054a.142.142,0,0,1,.045-.1c-.045.015-.08.067-.111.154m0,8.83c.059,0,.088-.021.088-.067-.014,0-.046.023-.088.067m0,.11q.023.043.023,0t-.023,0m3.119-8.259a2.358,2.358,0,0,0-.5-.077c-.175-.008-.338-.01-.484-.01a.432.432,0,0,1-.109-.044c-.043.029-.1.063-.165.1a.157.157,0,0,1-.187-.009.372.372,0,0,1-.242.152,1.658,1.658,0,0,0-.307.109,2.444,2.444,0,0,0-.417.309,2.6,2.6,0,0,0-.352.374,1.625,1.625,0,0,0-.22.427c-.043.14-.08.275-.109.408a2.162,2.162,0,0,0,.351,1.559.644.644,0,0,1,.131.22l.088.043a.166.166,0,0,1,.067.067l.022.044c.028.03.047.041.054.033s.025,0,.054.012a.069.069,0,0,1,.023.055c0,.022.013.033.043.033a.477.477,0,0,1,.22.109,1.621,1.621,0,0,0,.561.22,2.592,2.592,0,0,0,.45.066.6.6,0,0,1,.164.023.726.726,0,0,0,.188.02h.042a.589.589,0,0,1,.252-.075.581.581,0,0,0,.254-.077h.065a.66.66,0,0,0,.21-.034.414.414,0,0,1,.208-.011h.022a.538.538,0,0,0,.252-.121,1.366,1.366,0,0,1,.275-.187c.015,0,.029-.011.044-.033a.166.166,0,0,1,.066-.054h.089a.068.068,0,0,0,.021-.045,1.2,1.2,0,0,1,.35-.372c.03,0,.046-.029.046-.088a1.553,1.553,0,0,1,.089-.274,2.08,2.08,0,0,0,.087-.276,2.247,2.247,0,0,0,.054-.439,2.293,2.293,0,0,0-.034-.505,1.626,1.626,0,0,0-.274-.669,2.146,2.146,0,0,0-.319-.385,2.719,2.719,0,0,0-.538-.342c-.2-.094-.392-.179-.582-.252m-3.031,8.259c.043,0,.066-.007.066-.022-.044-.044-.066-.036-.066.022m.373-4.5h.044c0-.044-.014-.051-.044-.023Zm.088.218a.135.135,0,0,1,.012.089.052.052,0,0,0,.033.065c.044-.015.069-.017.077-.011s.025.027.054.054a.482.482,0,0,1-.01-.175c.006-.043-.019-.08-.077-.111a.128.128,0,0,1-.044.056.146.146,0,0,0-.044.032m.088.615a.042.042,0,0,0,.066.022.043.043,0,0,0,.021-.066.128.128,0,0,0-.087.044m.152,3.646a.172.172,0,0,1-.065-.021c-.029-.015-.042-.015-.042,0a.087.087,0,0,1,.054.033c.022.022.04.02.054-.011M173.9,50.5c.015-.029,0-.053-.033-.066s-.054-.007-.054.022c.028.044.057.058.087.044m-.022-8.566c0,.029.015.037.043.022s.053-.016.067,0c.015-.031,0-.052-.043-.066s-.066,0-.066.044m.066.262c.013.075.025.085.033.033s0-.062-.033-.033m.043,3.712a.04.04,0,0,1,.045.045.038.038,0,0,0,.043.042.142.142,0,0,0,.011-.1c-.008-.037-.033-.048-.076-.033,0,.029-.007.043-.022.043m.571-3.712a.248.248,0,0,0-.142,0,.323.323,0,0,1-.165,0c0,.03-.008.048-.022.056s-.022.024-.022.055a.222.222,0,0,0,.078.054c.021.008.025.033.011.077a.377.377,0,0,1,.394-.045l.045-.044c.014-.029.014-.05,0-.065a.083.083,0,0,1-.022-.066c-.074.029-.111.022-.111-.023a.089.089,0,0,0-.044-.088c.015.03.019.048.012.055a.044.044,0,0,0-.012.033m-.329-.154c.029,0,.044.008.044.022s.014.022.043.022a.049.049,0,0,1,.012-.033c.007-.007,0-.025-.012-.054a.061.061,0,0,1-.043.021.064.064,0,0,0-.044.022m.022,3.285c.014-.008.007-.018-.022-.033v.066a.033.033,0,0,1,.022-.033m.065-3.482c.046.03.081.03.11,0a.146.146,0,0,0,.044-.11c-.089.031-.14.067-.154.11m.046.834c.014.044.02.048.02.013s-.006-.041-.02-.013m.373-.153c.028.029.043.029.043,0s-.015-.029-.043,0m.043-.506v-.065a.034.034,0,0,1-.022.032c-.014.008-.007.018.022.033m.089.352c-.015.03-.012.04.009.032a.058.058,0,0,1,.057.011c0-.043-.009-.066-.023-.066,0,.044-.014.053-.043.023m.087-.242a.172.172,0,0,0,.109.022c0-.058-.021-.088-.065-.088-.015.015-.023.026-.023.033a.057.057,0,0,1-.021.033m.109.836q.111,0,.111-.087c-.073,0-.111.028-.111.087m.022-.22c.058.088.125.1.2.044a.306.306,0,0,0-.022-.132c0,.073-.021.1-.065.076a.088.088,0,0,0-.11.012m.066-6.217a.2.2,0,0,0,.131,0,.2.2,0,0,1,.132,0,.3.3,0,0,1,0-.154.506.506,0,0,0-.154.022.146.146,0,0,1-.131-.022c-.029.029-.033.055-.01.077a.111.111,0,0,1,.032.077m.175,6.018.065-.065a.053.053,0,0,1-.055-.033c-.006-.022-.032-.025-.077-.011,0,.087.022.124.067.108m.088.132c.014,0,.023,0,.023.013s.007.01.022.01c0-.043-.015-.057-.046-.043Zm.088-5.754c.029-.016.045-.016.045,0s.015.014.043,0a.052.052,0,0,0,.011-.055c-.008-.022,0-.041.033-.056-.058-.029-.106-.011-.142.056s-.032.084.01.055m.132-.242a.11.11,0,0,0,0-.1q-.022-.054-.087-.033c-.03.087,0,.132.087.132m.22-.593v.088a.067.067,0,0,1,.056-.045c.021,0,.04-.013.054-.043q-.045-.022-.054,0c-.006.015-.026.015-.056,0m.067,14.277c0-.058-.022-.087-.067-.087a.186.186,0,0,1,.022.077c0,.021.015.025.045.01m.02-8.368c.029,0,.046,0,.046-.011s.014-.011.043-.011c.014-.043,0-.062-.054-.055s-.063.034-.034.078m.22-5.557c-.014,0-.028-.014-.043-.044s-.022-.029-.022,0a.06.06,0,0,0,.022.044.026.026,0,0,0,.043,0m.419,5.382a.733.733,0,0,0,.012.143.1.1,0,0,1-.056.1c-.074-.014-.139-.025-.2-.033a.231.231,0,0,0-.154.033.254.254,0,0,1,0,.209,1.129,1.129,0,0,0-.065.209.159.159,0,0,0,.175.022.2.2,0,0,0,.11-.132.137.137,0,0,1-.143-.088.127.127,0,0,1,.055-.154h.209a.548.548,0,0,1,.208.044.154.154,0,0,1-.077-.187,1.276,1.276,0,0,1,.055-.165c0,.029-.018.044-.055.044a.079.079,0,0,1-.076-.044m-.4-4.525c.03,0,.04-.008.033-.022a.038.038,0,0,1,.012-.044h-.045Zm.177.088a.079.079,0,0,0-.088-.088.056.056,0,0,0,.021.076c.03.023.052.027.067.012m.109,4.524c.015-.014.006-.043-.021-.087a.073.073,0,0,0-.022.056c0,.021.014.031.044.031m.088-.153c-.029,0-.043.008-.043.021.029,0,.043-.008.043-.021m.417,1.121c-.016-.031-.016-.049,0-.056s.022-.025.022-.054a.247.247,0,0,0-.175-.045.173.173,0,0,0,.153.155m-.065-6.349c.058,0,.08-.014.065-.044-.044,0-.065.015-.065.044m.152,5.183c.029,0,.044-.02.044-.065s-.015-.067-.044-.067a.143.143,0,0,0-.032.067.051.051,0,0,0,.032.065m.154-4c.058,0,.077-.023.054-.067a.188.188,0,0,0-.077-.088c.03.029.037.056.022.077a.07.07,0,0,0,0,.078m0,4.854c.029,0,.044,0,.044.012s.008,0,.022-.034c-.014-.015-.036-.007-.066.023m.088-.945c.014-.045,0-.065-.044-.065,0,.043.015.065.044.065m.022-4.832a.044.044,0,0,1,.032.011.044.044,0,0,0,.034.011.155.155,0,0,0,.022-.176c-.074,0-.11.009-.11.023.045.014.061.031.054.054a.6.6,0,0,1-.032.077m.218,5.8a.376.376,0,0,0-.2-.108.138.138,0,0,0,.2.108m.023-.856a.088.088,0,0,0,.022.067q.022.022,0,.066a.129.129,0,0,0,.1-.033.14.14,0,0,1,.1-.032c.044.043.081.058.109.043.045-.014.065-.057.065-.133-.042.015-.073.009-.087-.02a.15.15,0,0,0-.066-.067.194.194,0,0,1-.121.055.219.219,0,0,0-.121.054m.022.44a.3.3,0,0,1,.043.352h.087a.753.753,0,0,0,.046-.286c0-.118-.059-.138-.176-.066m.066-.791c0,.03.008.049.022.057a.033.033,0,0,1,.022.032c.058-.029.1-.032.132-.011s.065.017.11-.012a.1.1,0,0,0-.11-.109.322.322,0,0,0-.176.043m.11-3.975a.251.251,0,0,0,.131.088c.058-.073.055-.132-.011-.176s-.1-.014-.12.088m.109,8.083a.05.05,0,0,0,.054-.033.105.105,0,0,1,.055-.054.045.045,0,0,1-.033-.011.046.046,0,0,0-.032-.01.143.143,0,0,0-.045.109m.11-3.206a.189.189,0,0,1-.023-.076c0-.024-.013-.034-.042-.034-.03.029-.008.066.065.11m-.065-.177a.516.516,0,0,1,.109.067.226.226,0,0,1,.175-.219c0-.046-.03-.066-.088-.066,0,.073-.025.1-.076.076a.177.177,0,0,1-.1-.076.727.727,0,0,0-.022.218m.065-.944A.019.019,0,0,1,178,41.14c0-.044-.015-.051-.044-.021,0,.029.008.043.023.043m0,.308c.014.029.025.026.033-.011s0-.033-.033.011M178,37.192l.023.023c0-.044-.008-.058-.023-.044Zm.066,4.285c.03,0,.044,0,.044-.011s.008-.012.022-.012c0-.058.006-.094.023-.109-.045-.044-.082-.058-.11-.044a.484.484,0,0,0,.021.176m.066.351c0-.029.036-.044.11-.044a.066.066,0,0,1,.033.078c-.008.035,0,.053.032.053.029-.058.088-.072.176-.043a.069.069,0,0,0-.055-.077c-.037-.007-.056-.033-.056-.078a.3.3,0,0,1-.164,0,1.448,1.448,0,0,1-.143-.065c0,.118.022.176.066.176m-.022-1.779a.463.463,0,0,0,.077.065c.022.016.026.059.011.131a1.072,1.072,0,0,0,.1.046.176.176,0,0,0,.121,0,.78.78,0,0,1-.033-.077.271.271,0,0,1-.011-.077c-.044.015-.072.008-.087-.023a.174.174,0,0,1-.023-.087.52.52,0,0,0-.012-.1.138.138,0,0,0-.032-.076.131.131,0,0,1-.077.087c-.037.017-.047.052-.033.111m.022-3.032h.044c0-.029-.015-.029-.044,0m.11,4.219c.014-.016.006-.037-.022-.067,0,.044.007.067.022.067m.045-3.361c-.016,0-.023,0-.023-.012s-.008-.011-.022-.011c-.029.029-.027.045.01.045s.049-.007.034-.022m.042,1.163c-.014,0-.021,0-.021-.01s-.014-.012-.044-.012c-.016.031-.008.049.023.055s.042,0,.042-.033m-.065-4.458a.1.1,0,0,1,.055.054.05.05,0,0,0,.054.033c.059-.087.037-.132-.066-.132Zm.088,3.777h-.044c.015,0,.021.007.021.023s.007.007.022-.023m.022-1.054a.685.685,0,0,1,.011-.133c.011-.06,0-.094-.033-.108-.029.129-.022.211.022.241m0,.5c.014,0,.025-.014.034-.044s0-.043-.034-.043a.067.067,0,0,0-.022.043c0,.03.008.044.022.044m0-2.635.045.088c0-.059-.015-.088-.045-.088m.088,10.5c-.029,0-.041-.007-.033-.022s0-.022-.033-.022q-.022.043.012.066c.023.015.04.007.054-.022m.022-7.578c0-.014-.03-.036-.088-.065,0,.029.008.044.022.044a.18.18,0,0,1,.066.021m-.066,7.8q.066,0,.066-.087c-.074,0-.1.029-.066.087m0-11.115c.044.03.062.027.055-.009s-.026-.034-.055.009m.021,2.637a.1.1,0,0,1,.055.066.052.052,0,0,0,.055.044.241.241,0,0,0-.065-.22c0,.03-.009.048-.022.054s-.023.025-.023.055m.023,3.4a.2.2,0,0,1,.054.077.213.213,0,0,0,.055.077c0-.015.022-.022.066-.022a.3.3,0,0,1,.12-.264.32.32,0,0,0,.143-.2q-.044.044-.076.011a.3.3,0,0,1-.054-.077.385.385,0,0,1-.308.4m.022,4.854a.36.36,0,0,0,.109.044q-.022-.066.012-.087a.077.077,0,0,0,.032-.067c-.03-.028-.055-.054-.077-.076s-.012-.048.033-.078a.183.183,0,0,0-.109-.021.061.061,0,0,0-.011.066.133.133,0,0,1-.012.087h.132c.014.088-.022.132-.109.132m0-10.653a.051.051,0,0,0,.054-.033c.008-.022,0-.04-.033-.054a.042.042,0,0,1-.012.033.088.088,0,0,0-.01.055m.065,6.546h.066c-.015-.029-.015-.049,0-.054s.015-.027,0-.056a.076.076,0,0,0-.066.034.072.072,0,0,0,0,.077m.044.132c0,.073.007.083.022.033s.007-.062-.022-.033m.022-3.558a.156.156,0,0,0,.111,0v-.111c-.044-.029-.078-.029-.1,0a.118.118,0,0,0-.011.111m.242-.264a.2.2,0,0,0-.088-.144,1.1,1.1,0,0,1-.132-.076c.029.058.054.107.077.143a.2.2,0,0,0,.143.077m-.111-3.34c.029.03.056.027.077-.011a.2.2,0,0,0,.033-.1h-.088c.014.029.014.047,0,.055a.058.058,0,0,0-.023.054m.088.132a.075.075,0,0,0-.032-.066q-.033-.021-.033.021c.014,0,.021.009.021.023s.015.021.044.021m-.044,3.624q.022.045.033,0c.007-.03,0-.03-.033,0m.067,11.334a.108.108,0,0,0-.012.121.562.562,0,0,0,.077.1c.014-.029.047-.04.1-.033s.077,0,.077-.033a.085.085,0,0,0-.065.021.051.051,0,0,0-.034-.054c-.023-.007-.033-.025-.033-.055a.124.124,0,0,0,.088-.043c.028-.03.022-.051-.021-.066,0,.029-.059.043-.176.043m.043-3.953V45.6h-.065a.058.058,0,0,0,.065.065m0-6.656a.019.019,0,0,0-.022.022h.044a.019.019,0,0,0-.022-.022m.045,1.186a.021.021,0,0,0-.022.023h.044a.02.02,0,0,0-.021-.023m.044,5.272c-.044,0-.067.009-.067.022.044.044.067.037.067-.022m-.023-6.281q.047.042.033,0c-.009-.028-.019-.03-.033,0m.045.768c-.03,0-.042-.01-.034-.033s0-.032-.011-.032a.3.3,0,0,0,.011.065c.008.029.02.029.034,0m.109-.9a.164.164,0,0,0,.121.044.163.163,0,0,1,.121.044.143.143,0,0,1,0,.153.1.1,0,0,0,.022.132.545.545,0,0,0,.054-.188,1.614,1.614,0,0,0,.011-.208.137.137,0,0,0-.154-.044.5.5,0,0,0-.175.066M179.21,49.6c.06.03.07.067.034.111a.329.329,0,0,1-.1.087.086.086,0,0,0,.121-.01.148.148,0,0,0,.055-.1c.058.03.1.023.132-.021s.023-.073-.022-.088c-.014.074-.046.092-.1.056s-.092-.049-.121-.035m0-9.9c.029,0,.046,0,.046.011s.006.01.021.01c0-.028,0-.042.011-.042s0-.008-.032-.023Zm.2,6.15c-.013.029-.013.044,0,.044s.022.015.022.044c-.043.074-.1.081-.154.023q0,.087.066.054a.261.261,0,0,1,.11-.033c0-.074.016-.118.046-.133a.062.062,0,0,1-.057-.022c-.007-.014-.019-.006-.033.022m-.043.638c.014.073.034.146.055.219a.316.316,0,0,1-.012.22.093.093,0,0,0,.068-.1.091.091,0,0,1,.065-.1c-.118-.059-.139-.129-.065-.21a.133.133,0,0,1,.219-.011.058.058,0,0,0-.066-.066c-.043,0-.058-.037-.043-.109-.059.028-.1.021-.109-.023s-.037-.05-.068-.021c.06.015.074.048.045.1a.254.254,0,0,1-.087.1m0,2.612c.029-.015.043-.015.043,0s.015.022.045.022a.1.1,0,0,0,.023-.109c-.046,0-.081.029-.111.087m.154-3.228a.114.114,0,0,1,.056.021c.021.015.038.008.053-.021-.015,0-.021-.03-.021-.089-.029,0-.059.031-.088.089m.066,1.23a.358.358,0,0,1,.043.143.609.609,0,0,1-.021.143.073.073,0,0,0,.1.011c.037-.022.071-.04.1-.055a.15.15,0,0,1-.087-.143.416.416,0,0,1,.043-.187.142.142,0,0,1-.087-.032.06.06,0,0,0-.087.01.1.1,0,0,1,.055.065c.007.03-.012.045-.055.045m.022,1.8a.044.044,0,0,1,.033.012c.007.007.025,0,.054-.012a.121.121,0,0,0-.045-.087q0,.042-.021.042t-.021.045m.175-.4c-.072-.015-.1-.011-.077.011s.048.018.077-.011m.022-.308c-.014.074-.01.083.011.033s.019-.062-.011-.033m.242-1.076a.124.124,0,0,0,.043-.087c-.058.015-.1.01-.121-.012a.139.139,0,0,0-.1-.033.281.281,0,0,0,.176.132m-.176.286a.1.1,0,0,0,.056.1c.035.023.04.048.011.077.1-.029.153-.08.153-.152-.058.014-.092,0-.1-.045s-.042-.059-.1-.044c0,.044-.008.067-.022.067m.286.945q0,.11.087.054c.058-.037.1-.041.133-.012a.066.066,0,0,1,0-.076c.013-.023.006-.033-.023-.033a.232.232,0,0,1-.2.066m.11-1.516h-.045l-.021.021c.043,0,.066-.008.066-.021m.042-10.786a.2.2,0,0,1,.221-.153c-.015-.074-.074-.109-.176-.109a.534.534,0,0,1-.066.13.1.1,0,0,0,.02.132m.375.2a.086.086,0,0,0-.078-.01.145.145,0,0,1-.1-.01c-.016.042.012.066.077.066s.1-.015.1-.046m-.067-.877c0,.014.015.036.044.065.03-.029.045-.051.045-.065-.029,0-.041-.008-.034-.022s0-.015-.032,0Zm.067.988c-.029.029-.029.044,0,.044s.029-.014,0-.044m.022-1.45a.091.091,0,0,0,.066-.021c-.044,0-.066.006-.066.021m.417,1.229c.029,0,.041.017.033.045a.281.281,0,0,0-.01.065q.087,0,.133-.131c-.059-.058-.11-.052-.155.021m.264-.284c-.016.013-.022.013-.022,0a.02.02,0,0,0-.022-.022c-.045.029-.047.059-.01.087s.054.008.054-.065" transform="translate(-94.101 -18.798)" fill="#fff"/>
    <path id="Path_31168" data-name="Path 31168" d="M101.654,19.427V15.712h-.767v-.7h1.675v.606a1.614,1.614,0,0,1,1.3-.676,1.553,1.553,0,0,1,1.545.969,1.688,1.688,0,0,1,1.514-.969c1.08,0,1.766.707,1.766,2.12v2.362h.767v.7h-1.675V17.267c0-1.09-.384-1.575-1.07-1.575-.6,0-.9.586-1.09,1.151a1.756,1.756,0,0,1,.01.222v2.362h.757v.7H104.72v-2.86c0-1.09-.383-1.575-1.07-1.575-.576,0-.929.606-1.091,1.191v2.544h.767v.7h-2.443v-.7Z" transform="translate(-55.849 -8.273)" fill="#fff"/>
    <path id="Path_31169" data-name="Path 31169" d="M123.833,14.967a2.184,2.184,0,0,1,1.686.687v-.626h.908v4.411h.778v.7h-1.686V19.51a2.193,2.193,0,0,1-1.686.676,2.338,2.338,0,0,1-2.282-2.624,2.322,2.322,0,0,1,2.282-2.6m-1.343,2.615a1.641,1.641,0,0,0,1.585,1.817,1.467,1.467,0,0,0,1.443-1.121V16.9a1.467,1.467,0,0,0-1.443-1.121,1.632,1.632,0,0,0-1.585,1.807" transform="translate(-67.289 -8.285)" fill="#fff"/>
    <path id="Path_31170" data-name="Path 31170" d="M138.009,12.576a2.174,2.174,0,0,1,1.7.727V11.335h-.787v-.687h1.7v6.4h.767v.7H139.7v-.666a2.268,2.268,0,0,1-1.7.716,2.338,2.338,0,0,1-2.282-2.624A2.322,2.322,0,0,1,138,12.579m-1.343,2.615a1.641,1.641,0,0,0,1.585,1.817,1.449,1.449,0,0,0,1.454-1.15V14.524a1.48,1.48,0,0,0-1.454-1.141,1.632,1.632,0,0,0-1.585,1.807" transform="translate(-75.136 -5.894)" fill="#fff"/>
    <path id="Path_31171" data-name="Path 31171" d="M152.352,14.967a2.257,2.257,0,0,1,2.383,2.483c0,.1-.02.454-.02.565h-3.876a1.634,1.634,0,0,0,1.706,1.383,2.245,2.245,0,0,0,1.716-.817l.232.737a2.724,2.724,0,0,1-2.12.868,2.421,2.421,0,0,1-2.514-2.625,2.417,2.417,0,0,1,2.493-2.594m1.6,2.342a1.512,1.512,0,0,0-1.575-1.6,1.6,1.6,0,0,0-1.585,1.6Z" transform="translate(-82.959 -8.285)" fill="#fff"/>
    <path id="Path_31172" data-name="Path 31172" d="M170.481,10.648v2.635a2.281,2.281,0,0,1,1.7-.707,2.315,2.315,0,0,1,2.271,2.6,2.331,2.331,0,0,1-2.271,2.625,2.269,2.269,0,0,1-1.7-.717v.667h-1.675v-.7h.767V11.335h-.767v-.687Zm0,5.209a1.447,1.447,0,0,0,1.454,1.151,1.647,1.647,0,0,0,1.585-1.817,1.638,1.638,0,0,0-1.585-1.807,1.5,1.5,0,0,0-1.454,1.141Z" transform="translate(-93.448 -5.894)" fill="#fff"/>
    <path id="Path_31173" data-name="Path 31173" d="M182.777,15.8v-.7h2.483v.7h-.707l1.3,3.665,1.333-3.665h-.707v-.7h2.473v.7H188.1l-1.938,5.068a1.365,1.365,0,0,1-1.424,1.08,2.81,2.81,0,0,1-.979-.182l.171-.717a2.012,2.012,0,0,0,.787.172.743.743,0,0,0,.666-.5l.192-.515H185.3L183.625,15.8Z" transform="translate(-101.182 -8.361)" fill="#fff"/>
    <path id="Path_31174" data-name="Path 31174" d="M82.211,36.537H18.269A18.269,18.269,0,1,1,18.269,0H82.211a18.269,18.269,0,1,1,0,36.537M18.269.893a17.376,17.376,0,0,0,0,34.752H82.211a17.376,17.376,0,0,0,0-34.752Z" fill="#fff"/>
    <path id="Path_31175" data-name="Path 31175" d="M38.764,36.537h-20.5A18.269,18.269,0,0,1,18.266,0h20.5ZM18.269.893a17.376,17.376,0,0,0,0,34.752h19.6V.893Z" fill="#fff"/>
    <path id="Path_31176" data-name="Path 31176" d="M31.85,22.93l.088-.142A6.9,6.9,0,0,1,34.4,20.4a5.57,5.57,0,0,1,2.167-.7,5.73,5.73,0,0,1,4.457,1.325A5.508,5.508,0,0,1,42.9,24.271a6.432,6.432,0,0,1,.108,1.312,12.86,12.86,0,0,1-.162,1.994,8.193,8.193,0,0,1-1.379,3.4,14.371,14.371,0,0,1-1.727,1.99c-.791.777-1.626,1.5-2.463,2.23-1.511,1.309-3.025,2.616-4.49,3.977-.278.258-.553.518-.829.777l-.1.094c-.028-.022-.054-.04-.077-.061-1.762-1.677-3.6-3.268-5.438-4.86-.878-.759-1.752-1.523-2.571-2.347a12.99,12.99,0,0,1-1.673-2,8.106,8.106,0,0,1-1.213-3.04,11.662,11.662,0,0,1-.185-2.565A5.625,5.625,0,0,1,25,19.837a5.884,5.884,0,0,1,4.967,1,7.1,7.1,0,0,1,1.8,1.96c.026.041.053.081.092.141" transform="translate(-11.452 -10.88)" fill="#ffdf00"/>
    <rect id="Rectangle_503" data-name="Rectangle 503" width="100.479" height="36.537" fill="none"/>
  </g>
</svg>
